<svg width="310" height="127" viewBox="0 0 310 127" fill="none" xmlns="http://www.w3.org/2000/svg">
<path d="M246.358 126.882C281.396 126.882 309.799 98.4784 309.799 63.4409C309.799 28.4035 281.396 0 246.358 0C211.321 0 182.917 28.4035 182.917 63.4409C182.917 98.4784 211.321 126.882 246.358 126.882Z" fill="#FF6E09"/>
<path d="M135.21 126.902C157.115 126.902 174.872 109.145 174.872 87.2405C174.872 65.336 157.115 47.579 135.21 47.579C113.306 47.579 95.5488 65.336 95.5488 87.2405C95.5488 109.145 113.306 126.902 135.21 126.902Z" fill="#22BD01"/>
<path d="M63.6633 126.889C76.8112 126.889 87.4696 116.23 87.4696 103.082C87.4696 89.9343 76.8112 79.2759 63.6633 79.2759C50.5154 79.2759 39.8569 89.9343 39.8569 103.082C39.8569 116.23 50.5154 126.889 63.6633 126.889Z" fill="#5D2796"/>
<path d="M15.8889 126.909C24.664 126.909 31.7777 119.795 31.7777 111.02C31.7777 102.245 24.664 95.131 15.8889 95.131C7.11369 95.131 0 102.245 0 111.02C0 119.795 7.11369 126.909 15.8889 126.909Z" fill="#00C4DC"/>
</svg>
