<svg width="107" height="107" viewBox="0 0 107 107" fill="none" xmlns="http://www.w3.org/2000/svg">
<path d="M9.33509 56.7852C10.1507 56.7852 10.933 56.9017 11.682 57.1348C12.431 57.3511 13.1051 57.6757 13.7043 58.1085L13.4296 59.2819L13.2299 59.3069C12.0648 58.3748 10.7499 57.9087 9.28516 57.9087C7.5042 57.9087 6.13936 58.5079 5.19062 59.7063C4.25854 60.9047 3.79249 62.6358 3.79249 64.8994C3.79249 67.163 4.25021 68.8941 5.16566 70.0925C6.0811 71.2742 7.39601 71.8651 9.11039 71.8651C9.87604 71.8651 10.6334 71.7319 11.3824 71.4656C12.1314 71.1827 12.8304 70.7915 13.4796 70.2922L13.6793 70.3671L13.5794 71.5905C12.148 72.5392 10.6334 73.0136 9.03549 73.0136C6.93829 73.0136 5.31546 72.3228 4.16699 70.9413C3.03517 69.5432 2.46926 67.5542 2.46926 64.9743C2.46926 62.3611 3.06014 60.3471 4.24189 58.9324C5.44029 57.5009 7.13802 56.7852 9.33509 56.7852ZM22.2573 56.7852C23.0729 56.7852 23.8552 56.9017 24.6042 57.1348C25.3532 57.3511 26.0273 57.6757 26.6265 58.1085L26.3518 59.2819L26.1521 59.3069C24.987 58.3748 23.6721 57.9087 22.2074 57.9087C20.4264 57.9087 19.0616 58.5079 18.1128 59.7063C17.1807 60.9047 16.7147 62.6358 16.7147 64.8994C16.7147 67.163 17.1724 68.8941 18.0879 70.0925C19.0033 71.2742 20.3182 71.8651 22.0326 71.8651C22.7982 71.8651 23.5556 71.7319 24.3046 71.4656C25.0536 71.1827 25.7526 70.7915 26.4018 70.2922L26.6015 70.3671L26.5016 71.5905C25.0702 72.5392 23.5556 73.0136 21.9577 73.0136C19.8605 73.0136 18.2377 72.3228 17.0892 70.9413C15.9574 69.5432 15.3915 67.5542 15.3915 64.9743C15.3915 62.3611 15.9823 60.3471 17.1641 58.9324C18.3625 57.5009 20.0602 56.7852 22.2573 56.7852ZM38.0696 56.8102C39.1681 56.8102 40.275 57.0599 41.3901 57.5592L41.1654 58.7576L40.9158 58.8325C40.4497 58.5329 39.9504 58.3082 39.4178 58.1584C38.9018 57.992 38.4025 57.9087 37.9198 57.9087C37.2207 57.9087 36.6049 58.0585 36.0722 58.3581C35.5563 58.6411 35.1568 59.0156 34.8738 59.4816C34.6075 59.9477 34.4744 60.422 34.4744 60.9047C34.4744 61.4207 34.6242 61.8701 34.9238 62.2529C35.2234 62.6358 35.5896 62.9686 36.0223 63.2516C36.4717 63.5179 37.0709 63.8258 37.8199 64.1754C38.7021 64.6081 39.4095 64.9993 39.9421 65.3488C40.4913 65.6817 40.9574 66.1228 41.3402 66.672C41.723 67.2047 41.9144 67.8538 41.9144 68.6194C41.9144 69.4017 41.6981 70.1341 41.2653 70.8165C40.8492 71.4823 40.25 72.0149 39.4677 72.4144C38.7021 72.7972 37.8366 72.9886 36.8712 72.9886C36.1888 72.9886 35.4897 72.8971 34.774 72.714C34.0583 72.5142 33.4091 72.2313 32.8266 71.8651L32.9764 70.5419L33.1511 70.467C33.7004 70.9497 34.3163 71.3158 34.9987 71.5655C35.6811 71.7985 36.3386 71.915 36.971 71.915C37.7034 71.915 38.3442 71.7652 38.8935 71.4656C39.4427 71.166 39.8672 70.7749 40.1668 70.2922C40.4664 69.8095 40.6162 69.3019 40.6162 68.7692C40.6162 68.22 40.4581 67.7456 40.1418 67.3461C39.8422 66.93 39.4677 66.5888 39.0183 66.3225C38.5856 66.0562 37.978 65.7316 37.1957 65.3488C36.3302 64.9327 35.6312 64.5582 35.0985 64.2253C34.5659 63.8924 34.1165 63.4597 33.7503 62.927C33.3842 62.3944 33.2011 61.7536 33.2011 61.0046C33.2011 60.239 33.4008 59.5399 33.8003 58.9074C34.2164 58.2583 34.7906 57.7506 35.523 57.3844C36.272 57.0016 37.1208 56.8102 38.0696 56.8102ZM49.2543 69.2186L49.2792 72.8638H48.0559L48.1058 69.2186L48.0808 68.3698L43.9114 60.5053H45.2846L45.5342 61.1294L48.6551 66.9467H48.7799L52.1754 61.1794L52.45 60.5053H53.7982L49.2792 68.3698L49.2543 69.2186ZM60.4848 60.4304C61.4501 60.4304 62.3822 60.6218 63.281 61.0046L63.0813 62.203L62.8566 62.2529C62.0244 61.687 61.1922 61.4041 60.3599 61.4041C59.5277 61.4041 58.8619 61.6371 58.3626 62.1031C57.8799 62.5525 57.6386 63.0602 57.6386 63.6261C57.6386 64.1754 57.8549 64.6164 58.2877 64.9493C58.7371 65.2822 59.4112 65.6401 60.31 66.0229C61.059 66.3724 61.6499 66.6804 62.0826 66.9467C62.5154 67.1963 62.8899 67.5375 63.2061 67.9703C63.5224 68.3864 63.6805 68.9024 63.6805 69.5182C63.6805 70.1341 63.5057 70.7083 63.1562 71.2409C62.8233 71.7569 62.3406 72.173 61.7081 72.4893C61.0756 72.8055 60.3433 72.9636 59.5111 72.9636C58.9452 72.9636 58.3626 72.8971 57.7634 72.7639C57.1642 72.6141 56.6149 72.3977 56.1156 72.1148L56.2404 70.8415L56.4152 70.7666C56.848 71.166 57.3556 71.474 57.9382 71.6903C58.5374 71.8901 59.1033 71.9899 59.6359 71.9899C60.4681 71.9899 61.1422 71.7652 61.6582 71.3158C62.1908 70.8498 62.4571 70.3088 62.4571 69.693C62.4571 69.1104 62.2324 68.6527 61.783 68.3198C61.3503 67.9703 60.6679 67.5792 59.7358 67.1464C59.0201 66.8135 58.4375 66.5222 57.9881 66.2726C57.5553 66.0063 57.1808 65.665 56.8646 65.2489C56.565 64.8328 56.4152 64.3252 56.4152 63.726C56.4152 63.1101 56.5816 62.5525 56.9145 62.0532C57.2641 61.5539 57.7468 61.1627 58.3626 60.8798C58.9784 60.5802 59.6858 60.4304 60.4848 60.4304ZM74.5775 60.6551L74.4776 61.6537L72.2556 61.5539H70.7076L70.6577 69.0189L70.7076 72.8638H69.4843L69.5092 69.1188L69.4843 61.5539H67.9613L65.6893 61.6537L65.5895 61.5289L65.6893 60.5053H74.5026L74.5775 60.6551ZM85.1038 71.915L84.954 72.8638H77.9134L77.9634 69.1188L77.9134 60.5053H84.954L85.0539 60.6551L84.9291 61.6038L81.8582 61.5289H79.1618L79.1368 65.973L81.6834 65.9979L83.8805 65.948L83.9554 66.0978L83.8555 67.0715L81.5835 67.0216L79.1118 67.0465V69.0189L79.1368 71.8401H81.6834L84.979 71.7902L85.1038 71.915ZM101.278 72.8638H100.154L99.8049 69.0938L99.031 62.5525H98.9061L94.9864 71.3907H93.9378L90.1678 62.5525H90.018L89.269 68.9939L88.8945 72.8638H87.796L89.1941 60.5053H90.6422L91.3412 62.4027L94.4621 69.7429H94.5619L97.8575 62.2529L98.5566 60.5053H99.9547L101.278 72.8638Z" fill="black"/>
<path d="M81.6857 48.1834C92.5524 48.1834 101.362 39.3742 101.362 28.5076C101.362 17.6409 92.5524 8.83168 81.6857 8.83168C70.819 8.83168 62.0098 17.6409 62.0098 28.5076C62.0098 39.3742 70.819 48.1834 81.6857 48.1834Z" fill="#FF6E09"/>
<path d="M47.2137 48.1897C54.0073 48.1897 59.5145 42.6824 59.5145 35.8889C59.5145 29.0953 54.0073 23.5881 47.2137 23.5881C40.4202 23.5881 34.9129 29.0953 34.9129 35.8889C34.9129 42.6824 40.4202 48.1897 47.2137 48.1897Z" fill="#22BD01"/>
<path d="M25.0238 48.1855C29.1015 48.1855 32.4072 44.8799 32.4072 40.8021C32.4072 36.7244 29.1015 33.4187 25.0238 33.4187C20.946 33.4187 17.6404 36.7244 17.6404 40.8021C17.6404 44.8799 20.946 48.1855 25.0238 48.1855Z" fill="#5D2796"/>
<path d="M10.2068 48.1918C12.9284 48.1918 15.1346 45.9855 15.1346 43.2639C15.1346 40.5424 12.9284 38.3361 10.2068 38.3361C7.4852 38.3361 5.27893 40.5424 5.27893 43.2639C5.27893 45.9855 7.4852 48.1918 10.2068 48.1918Z" fill="#00C4DC"/>
</svg>
