<svg width="102" height="70" viewBox="0 0 102 70" fill="none" xmlns="http://www.w3.org/2000/svg">
<path d="M7.9394 47.2816C8.75498 47.2816 9.53727 47.3981 10.2863 47.6312C11.0353 47.8475 11.7094 48.1721 12.3086 48.6049L12.0339 49.7783L11.8342 49.8033C10.6691 48.8712 9.35418 48.4051 7.88947 48.4051C6.10851 48.4051 4.74367 49.0043 3.79493 50.2027C2.86284 51.4011 2.3968 53.1322 2.3968 55.3958C2.3968 57.6594 2.85452 59.3905 3.76997 60.5889C4.68541 61.7706 6.00032 62.3615 7.7147 62.3615C8.48034 62.3615 9.23767 62.2283 9.98667 61.962C10.7357 61.6791 11.4347 61.2879 12.0839 60.7886L12.2836 60.8635L12.1837 62.0869C10.7523 63.0356 9.23767 63.51 7.6398 63.51C5.5426 63.51 3.91977 62.8192 2.7713 61.4377C1.63948 60.0396 1.07357 58.0506 1.07357 55.4707C1.07357 52.8575 1.66444 50.8435 2.8462 49.4288C4.0446 47.9973 5.74233 47.2816 7.9394 47.2816ZM20.8616 47.2816C21.6772 47.2816 22.4595 47.3981 23.2085 47.6312C23.9575 47.8475 24.6316 48.1721 25.2308 48.6049L24.9561 49.7783L24.7564 49.8033C23.5913 48.8712 22.2764 48.4051 20.8117 48.4051C19.0307 48.4051 17.6659 49.0043 16.7171 50.2027C15.785 51.4011 15.319 53.1322 15.319 55.3958C15.319 57.6594 15.7767 59.3905 16.6922 60.5889C17.6076 61.7706 18.9225 62.3615 20.6369 62.3615C21.4025 62.3615 22.1599 62.2283 22.9089 61.962C23.6579 61.6791 24.3569 61.2879 25.0061 60.7886L25.2058 60.8635L25.1059 62.0869C23.6745 63.0356 22.1599 63.51 20.562 63.51C18.4648 63.51 16.842 62.8192 15.6935 61.4377C14.5617 60.0396 13.9958 58.0506 13.9958 55.4707C13.9958 52.8575 14.5866 50.8435 15.7684 49.4288C16.9668 47.9973 18.6645 47.2816 20.8616 47.2816ZM36.6739 47.3066C37.7724 47.3066 38.8793 47.5563 39.9945 48.0556L39.7698 49.254L39.5201 49.3289C39.054 49.0293 38.5547 48.8046 38.0221 48.6548C37.5061 48.4884 37.0068 48.4051 36.5241 48.4051C35.825 48.4051 35.2092 48.5549 34.6766 48.8545C34.1606 49.1375 33.7611 49.512 33.4782 49.978C33.2118 50.4441 33.0787 50.9184 33.0787 51.4011C33.0787 51.9171 33.2285 52.3665 33.5281 52.7493C33.8277 53.1322 34.1939 53.465 34.6266 53.748C35.076 54.0143 35.6752 54.3222 36.4242 54.6718C37.3064 55.1045 38.0138 55.4957 38.5464 55.8452C39.0957 56.1781 39.5617 56.6192 39.9445 57.1684C40.3273 57.7011 40.5188 58.3502 40.5188 59.1158C40.5188 59.8981 40.3024 60.6305 39.8696 61.3129C39.4535 61.9787 38.8543 62.5113 38.072 62.9108C37.3064 63.2936 36.4409 63.485 35.4755 63.485C34.7931 63.485 34.094 63.3935 33.3783 63.2104C32.6626 63.0106 32.0134 62.7277 31.4309 62.3615L31.5807 61.0383L31.7555 60.9634C32.3047 61.4461 32.9206 61.8122 33.603 62.0619C34.2854 62.2949 34.9429 62.4114 35.5754 62.4114C36.3077 62.4114 36.9485 62.2616 37.4978 61.962C38.0471 61.6624 38.4715 61.2713 38.7711 60.7886C39.0707 60.3059 39.2205 59.7983 39.2205 59.2656C39.2205 58.7164 39.0624 58.242 38.7461 57.8425C38.4465 57.4264 38.072 57.0852 37.6226 56.8189C37.1899 56.5526 36.5823 56.228 35.8001 55.8452C34.9345 55.4291 34.2355 55.0546 33.7029 54.7217C33.1702 54.3888 32.7208 53.9561 32.3547 53.4234C31.9885 52.8908 31.8054 52.25 31.8054 51.501C31.8054 50.7354 32.0051 50.0363 32.4046 49.4038C32.8207 48.7547 33.3949 48.247 34.1273 47.8808C34.8763 47.498 35.7252 47.3066 36.6739 47.3066ZM47.8586 59.715L47.8835 63.3602H46.6602L46.7101 59.715L46.6851 58.8662L42.5157 51.0017H43.8889L44.1385 51.6258L47.2594 57.4431H47.3842L50.7797 51.6758L51.0543 51.0017H52.4025L47.8835 58.8662L47.8586 59.715ZM59.0891 50.9268C60.0545 50.9268 60.9865 51.1182 61.8853 51.501L61.6856 52.6994L61.4609 52.7493C60.6287 52.1834 59.7965 51.9005 58.9642 51.9005C58.132 51.9005 57.4662 52.1335 56.9669 52.5995C56.4842 53.0489 56.2429 53.5566 56.2429 54.1225C56.2429 54.6718 56.4593 55.1128 56.892 55.4457C57.3414 55.7786 58.0155 56.1365 58.9143 56.5193C59.6633 56.8688 60.2542 57.1768 60.6869 57.4431C61.1197 57.6927 61.4942 58.0339 61.8104 58.4667C62.1267 58.8828 62.2848 59.3988 62.2848 60.0146C62.2848 60.6305 62.11 61.2047 61.7605 61.7373C61.4276 62.2533 60.9449 62.6694 60.3124 62.9857C59.68 63.3019 58.9476 63.46 58.1154 63.46C57.5495 63.46 56.9669 63.3935 56.3677 63.2603C55.7685 63.1105 55.2192 62.8941 54.7199 62.6112L54.8447 61.3379L55.0195 61.263C55.4523 61.6624 55.9599 61.9704 56.5425 62.1867C57.1417 62.3865 57.7076 62.4863 58.2402 62.4863C59.0724 62.4863 59.7465 62.2616 60.2625 61.8122C60.7951 61.3462 61.0614 60.8052 61.0614 60.1894C61.0614 59.6068 60.8367 59.1491 60.3873 58.8162C59.9546 58.4667 59.2722 58.0756 58.3401 57.6428C57.6244 57.3099 57.0418 57.0186 56.5924 56.769C56.1597 56.5027 55.7852 56.1614 55.4689 55.7453C55.1693 55.3292 55.0195 54.8216 55.0195 54.2224C55.0195 53.6065 55.186 53.0489 55.5188 52.5496C55.8684 52.0503 56.3511 51.6591 56.9669 51.3762C57.5828 51.0766 58.2901 50.9268 59.0891 50.9268ZM73.1818 51.1515L73.0819 52.1501L70.8599 52.0503H69.3119L69.262 59.5153L69.3119 63.3602H68.0886L68.1135 59.6152L68.0886 52.0503H66.5656L64.2936 52.1501L64.1938 52.0253L64.2936 51.0017H73.1069L73.1818 51.1515ZM83.7082 62.4114L83.5584 63.3602H76.5178L76.5677 59.6152L76.5178 51.0017H83.5584L83.6582 51.1515L83.5334 52.1002L80.4625 52.0253H77.7661L77.7411 56.4694L80.2877 56.4943L82.4848 56.4444L82.5597 56.5942L82.4598 57.5679L80.1879 57.518L77.7162 57.5429V59.5153L77.7411 62.3365H80.2877L83.5833 62.2866L83.7082 62.4114ZM99.8823 63.3602H98.7588L98.4092 59.5902L97.6353 53.0489H97.5104L93.5907 61.8871H92.5421L88.7721 53.0489H88.6223L87.8733 59.4903L87.4988 63.3602H86.4003L87.7984 51.0017H89.2465L89.9455 52.8991L93.0664 60.2393H93.1662L96.4618 52.7493L97.1609 51.0017H98.559L99.8823 63.3602Z" fill="white"/>
<path d="M99.466 19.6759C99.466 30.2664 90.8807 38.8518 80.2901 38.8518C69.6996 38.8518 61.1143 30.2664 61.1143 19.6759C61.1143 9.08533 69.6996 0.5 80.2901 0.5C90.8807 0.5 99.466 9.08533 99.466 19.6759Z" fill="#FF6E09" stroke="white"/>
<path d="M57.619 27.0572C57.619 33.5746 52.3356 38.858 45.8182 38.858C39.3007 38.858 34.0173 33.5746 34.0173 27.0572C34.0173 20.5398 39.3007 15.2564 45.8182 15.2564C52.3356 15.2564 57.619 20.5398 57.619 27.0572Z" fill="#22BD01" stroke="white"/>
<path d="M30.5115 31.9705C30.5115 35.7721 27.4297 38.8539 23.628 38.8539C19.8264 38.8539 16.7446 35.7721 16.7446 31.9705C16.7446 28.1688 19.8264 25.087 23.628 25.087C27.4297 25.087 30.5115 28.1688 30.5115 31.9705Z" fill="#5D2796" stroke="white"/>
<path d="M13.239 34.4323C13.239 36.8777 11.2566 38.8602 8.81115 38.8602C6.36572 38.8602 4.3833 36.8777 4.3833 34.4323C4.3833 31.9869 6.36572 30.0045 8.81115 30.0045C11.2566 30.0045 13.239 31.9869 13.239 34.4323Z" fill="#00C4DC" stroke="white"/>
</svg>
