<svg width="452" height="315" viewBox="0 0 452 315" fill="none" xmlns="http://www.w3.org/2000/svg">
<path d="M359.459 20.4668C359.504 21.661 359.323 22.9457 358.916 24.3209C358.846 24.5654 358.715 24.7881 358.535 24.9678C358.355 25.1474 358.132 25.2781 357.887 25.3475C357.643 25.4168 357.384 25.4225 357.137 25.3639C356.889 25.3054 356.661 25.1846 356.473 25.013C355.767 24.3706 355.356 23.5066 355.238 22.421C355.012 20.3582 354.686 18.2864 354.261 16.2056C354.107 15.4727 353.668 15.2149 352.945 15.432C351.533 15.8572 350.402 15.5542 349.552 14.5228C349.326 14.2423 349.032 14.0885 348.67 14.0614L337.732 13.2336C337.581 13.216 337.422 13.2393 337.27 13.3014C336.275 13.6995 335.239 13.9031 334.163 13.9121C333.701 13.9121 333.294 14.0614 332.941 14.3599L330.309 16.572C326.446 14.844 325.989 12.8491 328.938 10.5873C329.336 10.2887 329.422 9.91325 329.196 9.4609C327.988 7.03173 329.956 5.11826 332.317 5.1454C332.76 5.15445 333.027 4.93731 333.118 4.494C333.561 2.21412 334.909 1.31845 337.162 1.807C337.623 1.90652 338.049 1.82509 338.438 1.56273L339.7 0.721335C340.08 0.458968 340.5 0.31874 340.962 0.300646L346.892 0.00208778C347.39 -0.0160065 347.86 0.0835139 348.303 0.300646C349.796 1.03347 351.325 1.49487 352.89 1.68486C353.442 1.75723 353.881 2.0196 354.207 2.47196C354.912 3.46715 355.853 4.13664 357.029 4.48044C358.644 4.96898 359.852 6.33962 359.323 8.13096C359.151 8.69188 359.3 9.13973 359.771 9.47447L360.273 9.84088C360.68 10.1304 360.974 10.5104 361.155 10.9808C361.77 12.546 361.259 13.7719 359.621 14.6585C359.196 14.8847 359.006 15.2375 359.052 15.717L359.459 20.4668Z" fill="#25242E"/>
<path d="M359.459 20.467C366.027 15.0659 369.325 29.0166 360.314 27.4424C359.78 27.3519 359.45 27.5691 359.323 28.0938C357.138 37.1319 348.127 40.8367 339.645 39.7918C332.344 38.8961 326.278 31.9072 329.983 24.5111C330.182 24.113 330.282 23.6923 330.282 23.249L330.309 16.5722L332.941 14.3602C333.294 14.0617 333.701 13.9124 334.163 13.9124C335.239 13.9033 336.275 13.6998 337.27 13.3017C337.422 13.2396 337.581 13.2163 337.732 13.2338L348.67 14.0617C349.032 14.0888 349.326 14.2426 349.552 14.5231C350.402 15.5544 351.533 15.8575 352.945 15.4323C353.668 15.2152 354.107 15.473 354.261 16.2058C354.686 18.2867 355.012 20.3585 355.238 22.4212C355.356 23.5069 355.767 24.3709 356.473 25.0132C356.661 25.1848 356.889 25.3057 357.137 25.3642C357.384 25.4227 357.643 25.4171 357.887 25.3477C358.132 25.2784 358.355 25.1477 358.535 24.968C358.715 24.7884 358.846 24.5657 358.916 24.3211C359.323 22.946 359.504 21.6613 359.459 20.467ZM346.458 19.8428C346.543 19.7723 346.606 19.6785 346.639 19.5728C346.672 19.4671 346.674 19.3541 346.643 19.2476C346.613 19.1411 346.553 19.0457 346.469 18.973C346.385 18.9004 346.283 18.8537 346.173 18.8385L344.219 18.5807C343.685 18.5083 343.463 18.7345 343.554 19.2592L344.151 22.9505C344.182 23.1308 344.261 23.2996 344.378 23.4401C344.495 23.5806 344.648 23.6878 344.819 23.751C344.991 23.8143 345.176 23.8312 345.357 23.8003C345.537 23.7694 345.706 23.6916 345.847 23.5747C346.227 23.249 346.39 22.7876 346.336 22.1905C346.309 21.892 346.232 21.607 346.105 21.3356C345.852 20.7475 345.969 20.2499 346.458 19.8428ZM337.243 21.6477C337.198 21.9372 337.311 22.1362 337.583 22.2448C337.636 22.2658 337.693 22.2731 337.748 22.2659C337.803 22.2588 337.853 22.2374 337.895 22.2041C338.03 22.0955 338.134 21.9643 338.207 21.8105C338.37 21.512 338.329 21.2451 338.085 21.0099C337.099 20.0328 335.95 19.4583 334.638 19.2864C334.032 19.205 333.783 19.4673 333.891 20.0735L334.611 23.9411C334.647 24.1658 334.762 24.3704 334.935 24.5185C335.108 24.6667 335.327 24.7488 335.555 24.7504C335.782 24.7521 336.003 24.6731 336.178 24.5274C336.353 24.3818 336.471 24.1789 336.511 23.9547C336.673 23.1857 336.61 22.4122 336.321 21.6341C336.275 21.5075 336.311 21.4034 336.429 21.322C336.529 21.2496 336.637 21.1999 336.755 21.1727C337.162 21.0822 337.325 21.2406 337.243 21.6477ZM362.539 23.914C362.612 23.905 362.679 23.914 362.743 23.9411C363.24 24.113 363.372 23.9592 363.136 23.4797C363.001 23.1993 362.856 22.9324 362.702 22.6791C362.322 22.0458 361.947 22.0503 361.576 22.6926C361.349 23.0907 361.218 23.5159 361.182 23.9683C361.155 24.2759 361.286 24.3754 361.576 24.2668C361.739 24.1945 361.901 24.1176 362.064 24.0361C362.218 23.9547 362.376 23.914 362.539 23.914ZM340.175 28.2702C339.994 28.6864 339.645 28.7226 339.13 28.3788C338.822 28.1797 338.483 28.0757 338.112 28.0667C337.904 28.0576 337.727 28.0938 337.583 28.1752C336.696 28.6185 336.732 28.9035 337.691 29.0302L340.039 29.3287C339.216 29.2654 338.804 29.2609 338.804 29.3152C338.778 29.6692 338.847 30.0237 339.003 30.3426C339.159 30.6615 339.396 30.9334 339.691 31.1307C339.986 31.3279 340.329 31.4434 340.683 31.4653C341.037 31.4873 341.391 31.415 341.708 31.2558C343.644 30.2787 344.024 29.6318 342.848 29.3152C343.87 29.1161 344.866 28.8492 345.834 28.5145C346.223 28.3788 346.449 28.1616 346.512 27.8631C346.63 27.3112 346.44 27.1619 345.942 27.4153C344.594 28.1028 343.54 28.2838 342.78 27.9581C340.193 26.3748 339.324 26.4789 340.175 28.2702Z" fill="#C27065"/>
<path d="M346.458 19.8426C345.969 20.2497 345.852 20.7473 346.105 21.3353C346.232 21.6068 346.308 21.8917 346.336 22.1903C346.39 22.7874 346.227 23.2488 345.847 23.5745C345.706 23.6914 345.537 23.7691 345.357 23.8001C345.176 23.831 344.991 23.814 344.819 23.7508C344.647 23.6876 344.495 23.5804 344.378 23.4399C344.261 23.2994 344.182 23.1306 344.151 22.9503L343.554 19.259C343.463 18.7343 343.685 18.5081 344.219 18.5805L346.173 18.8383C346.282 18.8534 346.385 18.9002 346.469 18.9728C346.552 19.0454 346.613 19.1408 346.643 19.2473C346.673 19.3539 346.672 19.4669 346.639 19.5726C346.606 19.6783 346.543 19.7721 346.458 19.8426Z" fill="#25242E"/>
<path d="M336.755 21.1726C336.637 21.1997 336.529 21.2495 336.429 21.3219C336.312 21.4033 336.275 21.5073 336.321 21.634C336.61 22.4121 336.673 23.1856 336.511 23.9546C336.471 24.1787 336.353 24.3816 336.178 24.5273C336.003 24.6729 335.783 24.7519 335.555 24.7503C335.327 24.7487 335.108 24.6665 334.935 24.5184C334.762 24.3703 334.647 24.1657 334.611 23.941L333.891 20.0734C333.783 19.4672 334.032 19.2048 334.638 19.2863C335.95 19.4581 337.099 20.0326 338.085 21.0097C338.329 21.245 338.37 21.5119 338.207 21.8104C338.135 21.9642 338.031 22.0954 337.895 22.204C337.853 22.2373 337.803 22.2587 337.748 22.2658C337.693 22.273 337.636 22.2657 337.583 22.2447C337.311 22.1361 337.198 21.9371 337.243 21.6476C337.325 21.2404 337.162 21.0821 336.755 21.1726Z" fill="#25242E"/>
<path d="M362.064 24.0359C361.901 24.1173 361.738 24.1942 361.576 24.2666C361.286 24.3752 361.155 24.2757 361.182 23.968C361.218 23.5157 361.349 23.0905 361.576 22.6924C361.946 22.05 362.322 22.0455 362.702 22.6788C362.856 22.9321 363 23.199 363.136 23.4795C363.371 23.959 363.24 24.1128 362.743 23.9409C362.679 23.9138 362.611 23.9047 362.539 23.9138C362.376 23.9138 362.218 23.9545 362.064 24.0359Z" fill="#25242E"/>
<path d="M342.78 27.9579L340.174 28.27C339.324 26.4787 340.193 26.3747 342.78 27.9579Z" fill="#FAC0C3"/>
<path d="M342.848 29.3151C341.853 29.5503 340.916 29.5549 340.039 29.3287L337.691 29.0301C336.732 28.9035 336.696 28.6185 337.583 28.1752C337.727 28.0937 337.904 28.0576 338.112 28.0666C338.483 28.0756 338.822 28.1797 339.13 28.3787C339.645 28.7225 339.994 28.6863 340.175 28.2702L342.78 27.958C343.54 28.2837 344.594 28.1028 345.942 27.4152C346.44 27.1619 346.63 27.3112 346.512 27.863C346.449 28.1616 346.223 28.3787 345.833 28.5144C344.865 28.8492 343.87 29.1161 342.848 29.3151Z" fill="#883A45"/>
<path d="M340.039 29.3286C340.917 29.5547 341.853 29.5502 342.848 29.315C344.024 29.6316 343.644 30.2785 341.708 31.2556C341.391 31.4148 341.037 31.4871 340.683 31.4652C340.329 31.4432 339.987 31.3277 339.691 31.1305C339.396 30.9333 339.159 30.6614 339.003 30.3424C338.847 30.0235 338.778 29.669 338.804 29.315C338.804 29.2607 339.216 29.2652 340.039 29.3286Z" fill="#FAC0C3"/>
<path d="M284.331 77.2333C292.057 82.8154 296.879 91.27 298.797 102.597L296.205 104.09C295.789 104.334 295.626 104.691 295.717 105.162C295.762 105.379 295.852 105.592 295.988 105.8C295.88 105.61 295.653 105.628 295.31 105.854C295.111 105.094 294.663 104.877 293.966 105.203C280.843 111.309 271.927 107.808 260.935 98.6615C251.802 91.0483 243.171 83.1773 233.793 76.4598C232.771 75.736 231.586 75.4013 230.238 75.4556C229.686 75.4827 229.179 75.3425 228.718 75.0349C225.57 72.9178 219.761 65.956 224.362 63.0383C224.814 62.7488 225.049 62.3372 225.068 61.8034C225.122 60.0754 226.117 58.6912 228.053 57.6507C231.663 59.4602 235.218 61.6677 238.72 64.2733C239.642 64.9608 240.117 65.8791 240.145 67.0281C240.199 69.4618 241.321 71.3165 243.51 72.5921C243.718 72.7188 243.886 72.6735 244.012 72.4564V72.4429C244.085 72.3252 244.062 72.2348 243.944 72.1714C240.484 70.2851 241.162 68.0731 240.307 64.9247C240.172 64.409 239.878 64.0064 239.425 63.7169C236.313 61.6993 233.233 59.6683 230.184 57.6236C227.732 55.9861 227.397 53.8238 229.179 51.1368C232.165 50.0783 230.799 49.4495 225.081 49.2505C223.407 49.1962 221.942 48.59 220.684 47.432C220.492 47.2526 220.338 47.0347 220.233 46.7919C220.128 46.5491 220.074 46.2866 220.073 46.0206C220.092 43.4603 221.385 42.0082 223.955 41.6644C231.382 40.6602 237.724 42.7817 242.981 48.0291C254.665 59.7135 267.978 69.3216 281.685 78.5225C281.824 78.6169 281.989 78.6651 282.157 78.6602C282.325 78.6553 282.488 78.5977 282.621 78.4954L284.331 77.2333ZM248.034 58.9085C248.082 58.8244 247.572 58.4211 246.616 57.7873C245.66 57.1535 244.335 56.3411 242.934 55.5288C242.24 55.1266 241.548 54.7365 240.898 54.3809C240.248 54.0252 239.652 53.711 239.144 53.456C238.636 53.201 238.227 53.0104 237.939 52.895C237.651 52.7795 237.491 52.7415 237.467 52.7832C237.418 52.8673 237.928 53.2706 238.884 53.9044C239.841 54.5382 241.165 55.3506 242.566 56.1628C243.26 56.565 243.952 56.9551 244.602 57.3108C245.253 57.6664 245.849 57.9807 246.356 58.2357C246.864 58.4906 247.273 58.6813 247.561 58.7967C247.849 58.9121 248.009 58.9501 248.034 58.9085ZM233.902 71.0044L234.106 71.33C234.205 71.4929 234.341 71.5291 234.513 71.4386C235.644 70.8415 236.485 69.8599 237.037 68.4938C237.218 68.0414 237.236 67.58 237.091 67.1095C236.937 66.63 236.996 66.1867 237.268 65.7796C237.602 65.2639 237.467 64.9654 236.86 64.8839C234.047 64.4678 231.753 62.7895 229.98 59.8492C229.872 59.6683 229.731 59.6366 229.559 59.7542V59.7678C229.378 59.8944 229.347 60.0528 229.464 60.2428C231.03 62.6855 233.138 64.418 235.788 65.4403C236.268 65.6303 236.535 65.9786 236.589 66.4853C236.842 68.6928 235.965 70.1494 233.956 70.8551C233.884 70.8822 233.866 70.932 233.902 71.0044ZM232.749 70.4208C230.93 69.9051 229.953 69.1859 228.65 67.9374C227.736 67.0688 227.628 67.1593 228.324 68.2088C229.383 69.792 230.831 70.6605 232.667 70.8143C233.979 70.9139 234.006 70.7827 232.749 70.4208ZM285.037 81.5488C285.67 81.8926 285.783 81.7659 285.376 81.1688C284.842 80.4179 284.091 79.8389 283.123 79.4318C282.381 79.1242 282.282 79.2689 282.825 79.8661C283.44 80.5265 284.177 81.0874 285.037 81.5488Z" fill="#C27065"/>
<path d="M398.095 54.258L397.837 55.0722C397.484 54.9365 397.077 54.8642 396.616 54.8551C396.236 54.8461 395.865 54.9637 395.503 55.2079C385.732 61.6948 380.249 74.9127 379.272 86.2035C379.118 87.9858 379.91 89.4017 381.647 90.4512C381.204 90.9578 381.285 91.3016 381.891 91.4825C379.919 97.2727 379.593 103.334 380.914 109.667C380.426 114.186 379.517 119.072 382.57 123.102L382.529 125.817C381.462 127.029 380.096 127.481 378.431 127.174C366.217 124.912 354.008 122.636 341.803 120.347C336.194 119.289 330.476 118.488 324.65 117.945L313.183 115.991C309.591 113.241 308.243 109.613 309.139 105.108C309.175 104.899 309.175 104.723 309.139 104.578C309.021 104.162 308.849 104.063 308.623 104.28C312.287 98.5891 314.164 94.8255 314.255 92.9889C314.454 88.7005 314.59 84.2765 314.662 79.7167C314.662 79.2553 314.535 78.8301 314.282 78.4411C311.333 73.8361 308.324 69.3215 305.257 64.8975C305.113 64.6803 304.914 64.531 304.66 64.4496C304.316 64.332 304.05 64.3184 303.86 64.4089L304.077 63.364C307.347 61.2469 310.577 58.8313 313.902 57.0264C318.498 54.5385 323.153 52.15 327.866 49.8611C330.553 48.5583 333.109 47.9928 335.534 48.1647C335.697 48.9699 335.837 49.1282 335.954 48.6397C335.828 49.0468 335.742 49.4042 335.697 49.7118C335.642 50.0375 335.715 50.3768 335.914 50.7296C337.66 53.9142 339.487 57.1124 341.396 60.3241C341.65 60.7403 341.953 60.7855 342.306 60.4598L345.047 57.8814C345.961 58.5147 346.567 59.2792 346.865 60.1748C346.911 60.3286 347.015 60.392 347.177 60.3648C347.331 60.3377 347.422 60.2608 347.449 60.1341C347.503 59.8537 347.444 59.5732 347.272 59.2927C346.766 58.5147 346.427 57.5466 346.255 56.3886C348.734 53.1316 351.389 49.9063 354.221 46.7127C354.592 46.2965 354.619 45.8984 354.302 45.5184C354.818 45.7718 355.189 45.532 355.415 44.7992C358.762 43.6412 362.232 43.2069 365.824 43.4964C366.095 43.5145 366.344 43.5959 366.57 43.7407C366.679 43.804 366.787 43.8764 366.896 43.9578C367.104 44.1206 367.344 44.2156 367.615 44.2428C375.414 45.0027 382.072 46.4051 387.591 48.4497C390.595 49.5625 394.096 51.4986 398.095 54.258ZM341.654 73.8677C341.22 74.112 340.876 73.8541 340.623 73.0942C340.388 72.3885 339.858 71.8276 339.035 71.4114C338.338 71.0586 338.239 71.1852 338.736 71.7914C339.415 72.6056 339.94 73.5239 340.311 74.5462C340.352 74.6623 340.422 74.7662 340.513 74.8488C340.604 74.9314 340.715 74.9902 340.834 75.0197C340.954 75.0493 341.079 75.0488 341.198 75.0182C341.318 74.9877 341.428 74.9281 341.518 74.8448C341.944 74.4648 341.989 74.1391 341.654 73.8677C342.125 74.0396 342.446 73.9808 342.618 73.6913C342.672 73.5918 342.74 73.4968 342.821 73.4063C350.955 64.0968 359.02 54.733 367.018 45.3149C367.117 45.1973 367.14 45.0661 367.086 44.9213L366.923 44.4328C366.917 44.417 366.907 44.4031 366.894 44.3924C366.881 44.3817 366.866 44.3746 366.849 44.3719C366.833 44.3691 366.816 44.3708 366.8 44.3767C366.784 44.3826 366.771 44.3926 366.76 44.4056L364.331 47.5812C364.02 47.9814 363.605 48.2883 363.134 48.4679C362.662 48.6475 362.151 48.6928 361.657 48.599C359.739 48.2552 357.88 47.9069 356.08 47.554C355.872 47.5088 355.75 47.5902 355.713 47.7983L355.7 47.8119C355.664 47.9928 355.741 48.1059 355.931 48.1512C357.794 48.5945 359.717 48.9609 361.698 49.2504C361.803 49.2662 361.902 49.3098 361.985 49.3768C362.068 49.4437 362.131 49.5316 362.169 49.6312C362.206 49.7309 362.216 49.8387 362.198 49.9435C362.179 50.0483 362.133 50.1464 362.065 50.2275L357.858 55.0722C357.68 55.2717 357.44 55.4048 357.179 55.4493C356.917 55.4937 356.649 55.4469 356.419 55.3165L351.344 52.4667C351.323 52.4546 351.3 52.4452 351.278 52.4392C351.256 52.4332 351.234 52.4308 351.215 52.4321C351.195 52.4334 351.178 52.4384 351.166 52.4467C351.153 52.455 351.144 52.4665 351.14 52.4802L351.004 52.8059C350.941 52.9416 350.973 53.0457 351.099 53.1181L356.148 55.8593C356.246 55.9121 356.33 55.9865 356.395 56.077C356.461 56.1676 356.505 56.2719 356.524 56.3825C356.544 56.4931 356.538 56.6071 356.508 56.7162C356.478 56.8252 356.425 56.9266 356.351 57.0129L341.654 73.8677ZM342.183 61.9662V61.9526C342.011 61.9255 341.912 61.9978 341.885 62.1697C341.306 65.0829 341.012 68.0323 341.003 71.0179C341.003 71.1445 341.057 71.1762 341.166 71.1128L341.573 70.8821C341.672 70.8279 341.717 70.7419 341.708 70.6243C341.618 67.8016 341.858 65.0286 342.428 62.3054C342.464 62.1155 342.382 62.0024 342.183 61.9662Z" fill="#F05467"/>
<path d="M341.654 73.8678L356.351 57.0129C356.424 56.9267 356.478 56.8253 356.508 56.7163C356.538 56.6072 356.543 56.4932 356.524 56.3826C356.504 56.272 356.46 56.1677 356.395 56.0771C356.33 55.9866 356.245 55.9122 356.147 55.8594L351.099 53.1181C350.972 53.0458 350.941 52.9417 351.004 52.806L351.14 52.4803C351.144 52.4666 351.152 52.4551 351.165 52.4468C351.178 52.4385 351.195 52.4335 351.214 52.4322C351.234 52.4309 351.256 52.4333 351.278 52.4393C351.3 52.4453 351.322 52.4546 351.343 52.4667L356.419 55.3166C356.648 55.447 356.916 55.4938 357.178 55.4494C357.44 55.4049 357.68 55.2718 357.857 55.0723L362.064 50.2276C362.133 50.1465 362.179 50.0484 362.197 49.9436C362.216 49.8388 362.206 49.7309 362.168 49.6313C362.131 49.5317 362.068 49.4438 361.985 49.3769C361.902 49.3099 361.803 49.2663 361.698 49.2505C359.716 48.961 357.794 48.5946 355.93 48.1512C355.74 48.106 355.663 47.9929 355.7 47.812L355.713 47.7984C355.749 47.5903 355.871 47.5089 356.08 47.5541C357.88 47.907 359.739 48.2553 361.657 48.5991C362.151 48.6929 362.662 48.6475 363.133 48.468C363.605 48.2884 364.019 47.9815 364.331 47.5813L366.76 44.4057C366.77 44.3927 366.784 44.3827 366.8 44.3768C366.815 44.3709 366.832 44.3692 366.849 44.372C366.866 44.3747 366.881 44.3818 366.894 44.3925C366.907 44.4032 366.917 44.4171 366.923 44.4329L367.085 44.9214C367.14 45.0662 367.117 45.1973 367.018 45.315C359.02 54.7331 350.954 64.0969 342.821 73.4064C342.739 73.4969 342.672 73.5919 342.617 73.6914C342.445 73.9809 342.124 74.0397 341.654 73.8678Z" fill="#25242E"/>
<path d="M355.414 44.7993C355.188 45.5321 354.817 45.7718 354.302 45.5185L335.954 48.6398C335.836 49.1283 335.696 48.97 335.533 48.1648C342.056 46.3825 348.683 45.2607 355.414 44.7993Z" fill="#25242E"/>
<path d="M354.302 45.5186C354.618 45.8985 354.591 46.2966 354.22 46.7128C351.388 49.9064 348.733 53.1317 346.254 56.3887C345.639 56.9225 345.236 57.4201 345.046 57.8815L342.305 60.4599C341.952 60.7856 341.649 60.7404 341.396 60.3242C339.487 57.1125 337.659 53.9143 335.913 50.7297C335.714 50.3769 335.642 50.0376 335.696 49.7119C335.741 49.4043 335.827 49.0469 335.954 48.6398L354.302 45.5186Z" fill="white"/>
<path d="M229.18 51.1369C227.397 53.8239 227.732 55.9862 230.184 57.6237C233.233 59.6684 236.313 61.6995 239.426 63.717C239.878 64.0065 240.172 64.4091 240.308 64.9248C241.163 68.0732 240.484 70.2852 243.945 72.1715C244.062 72.2349 244.085 72.3254 244.013 72.443V72.4565C243.886 72.6737 243.719 72.7189 243.51 72.5923C241.321 71.3166 240.199 69.4619 240.145 67.0282C240.118 65.8793 239.643 64.961 238.72 64.2734C235.219 61.6678 231.663 59.4603 228.053 57.6509C227.121 53.7877 227.497 51.6164 229.18 51.1369Z" fill="#25242E"/>
<path d="M242.566 56.163C245.484 57.8545 247.932 59.0837 248.034 58.9087C248.135 58.7336 245.852 57.2205 242.934 55.529C240.016 53.8376 237.568 52.6083 237.467 52.7834C237.365 52.9584 239.649 54.4716 242.566 56.163Z" fill="#25242E"/>
<path d="M398.095 54.2579L419.943 69.4707C419.735 69.706 419.351 69.7648 418.79 69.6472L397.837 55.0722L398.095 54.2579Z" fill="#25242E"/>
<path d="M397.837 55.0724L418.79 69.6473C420.319 70.0725 420.599 70.7692 419.631 71.7372C413.018 78.2964 406.4 84.8556 399.777 91.4148L396.887 94.4547L394.2 96.911C393.63 97.5443 393.114 97.9604 392.653 98.1595C392.191 98.3675 391.657 98.2002 391.051 97.6573C388.075 95.0065 384.94 92.6045 381.647 90.4513C379.91 89.4018 379.118 87.9859 379.272 86.2036C380.249 74.9128 385.732 61.6949 395.503 55.2081C395.864 54.9638 396.235 54.8462 396.615 54.8552C397.077 54.8643 397.484 54.9367 397.837 55.0724Z" fill="white"/>
<path d="M346.254 56.3889C346.426 57.5469 346.765 58.5149 347.272 59.293C347.444 59.5735 347.503 59.8539 347.448 60.1344C347.421 60.261 347.331 60.3379 347.177 60.3651C347.014 60.3922 346.91 60.3289 346.865 60.1751C346.566 59.2794 345.96 58.5149 345.046 57.8816C345.236 57.4202 345.639 56.9226 346.254 56.3889Z" fill="#883A45"/>
<path d="M233.956 70.8551C235.965 70.1494 236.842 68.6928 236.589 66.4853C236.535 65.9786 236.268 65.6303 235.788 65.4403C233.138 64.418 231.03 62.6855 229.465 60.2427C229.347 60.0527 229.379 59.8944 229.56 59.7678V59.7542C229.731 59.6366 229.872 59.6682 229.98 59.8492C231.753 62.7895 234.047 64.4678 236.861 64.8839C237.467 64.9654 237.602 65.2639 237.268 65.7796C236.996 66.1867 236.937 66.63 237.091 67.1095C237.236 67.58 237.218 68.0414 237.037 68.4938C236.485 69.8599 235.644 70.8415 234.513 71.4386C234.341 71.5291 234.205 71.4929 234.106 71.33L233.902 71.0043C233.866 70.932 233.884 70.8822 233.956 70.8551Z" fill="#25242E"/>
<path d="M342.427 62.3055C341.857 65.0287 341.617 67.8017 341.708 70.6244C341.717 70.742 341.672 70.828 341.572 70.8822L341.165 71.1129C341.056 71.1763 341.002 71.1446 341.002 71.018C341.011 68.0324 341.305 65.083 341.884 62.1698C341.911 61.9979 342.011 61.9256 342.183 61.9527V61.9663C342.382 62.0025 342.463 62.1155 342.427 62.3055Z" fill="#25242E"/>
<path d="M304.076 63.3639L303.859 64.4088L291.876 72.7006C291.433 72.8634 291.08 72.8001 290.818 72.5106L304.076 63.3639Z" fill="#25242E"/>
<path d="M303.859 64.409C304.049 64.3185 304.316 64.3321 304.66 64.4497C304.913 64.5311 305.112 64.6804 305.257 64.8975C308.324 69.3216 311.332 73.8361 314.282 78.4411C314.535 78.8302 314.662 79.2554 314.662 79.7168C314.589 84.2766 314.454 88.7006 314.255 92.989C314.164 94.8255 312.287 98.5891 308.623 104.28L301.769 108.853C301.157 109.265 300.411 109.428 299.682 109.31C298.954 109.192 298.298 108.8 297.848 108.215L295.988 105.8C295.853 105.592 295.762 105.379 295.717 105.162C295.626 104.691 295.789 104.334 296.205 104.09L298.797 102.597C299.729 103.927 300.091 105.519 299.883 107.374C299.865 107.528 299.928 107.632 300.073 107.686L300.562 107.862C300.951 107.998 301.109 107.867 301.037 107.469C299.625 98.9737 294.496 81.8067 286.285 77.8576C286.174 77.8028 286.079 77.72 286.009 77.6176C285.939 77.5153 285.898 77.3969 285.888 77.2744C285.878 77.1519 285.901 77.0297 285.954 76.92C286.007 76.8104 286.089 76.7171 286.19 76.6498L291.876 72.7007L303.859 64.409Z" fill="white"/>
<path d="M228.65 67.9373C229.953 69.1858 230.93 69.9051 232.749 70.4207C234.006 70.7826 233.979 70.9138 232.667 70.8143C230.831 70.6605 229.383 69.792 228.325 68.2087C227.628 67.1592 227.737 67.0688 228.65 67.9373Z" fill="#25242E"/>
<path d="M418.79 69.6472C419.351 69.7649 419.735 69.7061 419.943 69.4708C420.785 69.887 421.337 70.4977 421.599 71.3029L400.279 91.9711C400.261 91.7178 400.094 91.5323 399.777 91.4147C406.4 84.8555 413.018 78.2963 419.631 71.7371C420.599 70.7691 420.319 70.0725 418.79 69.6472Z" fill="#883A45"/>
<path d="M341.654 73.8678C341.988 74.1392 341.943 74.4649 341.518 74.8449C341.427 74.9283 341.317 74.9878 341.198 75.0184C341.079 75.0489 340.954 75.0494 340.834 75.0198C340.714 74.9903 340.604 74.9316 340.513 74.8489C340.421 74.7663 340.352 74.6624 340.31 74.5464C339.939 73.524 339.415 72.6057 338.736 71.7915C338.238 71.1853 338.338 71.0587 339.035 71.4115C339.858 71.8277 340.387 72.3886 340.622 73.0943C340.876 73.8543 341.219 74.1121 341.654 73.8678Z" fill="#25242E"/>
<path d="M421.599 71.3031C430.827 78.1563 436.174 89.3929 430.176 99.9781C428.403 103.108 425.96 106.175 422.848 109.179C413.9 117.828 405.332 125.387 397.145 131.856C396.792 132.136 396.588 132.494 396.534 132.928C396.398 134.004 396.195 134.701 395.923 135.018C394.539 136.872 392.884 138.089 390.957 138.668C387.862 139.591 384.904 139.293 382.081 137.773L380.507 134.339C382.136 134.131 382.891 133.575 382.773 132.67C386.854 133.982 390.604 133.647 394.024 131.666L394.621 131.34C394.903 131.19 395.135 130.953 395.286 130.662C397.258 126.853 396.407 123.772 392.734 121.42C392.363 121.176 392.182 120.836 392.191 120.402C392.314 114.431 392.029 109.233 386.967 105.406C386.768 105.316 386.627 105.18 386.546 104.999L392.178 99.3946C393.788 98.6527 394.462 97.8249 394.2 96.9111L396.887 94.4548C397.882 94.3824 399.013 93.5546 400.28 91.9714L421.599 71.3031Z" fill="#C27065"/>
<path d="M290.818 72.5106C291.08 72.8001 291.433 72.8635 291.876 72.7006L286.19 76.6497C286.088 76.7171 286.007 76.8103 285.954 76.9199C285.901 77.0296 285.878 77.1518 285.888 77.2743C285.897 77.3968 285.939 77.5152 286.009 77.6176C286.079 77.72 286.174 77.8027 286.285 77.8575C294.495 81.8066 299.625 98.9736 301.036 107.469C301.109 107.867 300.95 107.998 300.561 107.862L300.073 107.686C299.928 107.632 299.865 107.528 299.883 107.374C300.091 105.519 299.729 103.927 298.797 102.597C296.879 91.2699 292.057 82.8154 284.331 77.2333L290.818 72.5106Z" fill="#883A45"/>
<path d="M145.217 91.4013C143.923 91.2837 142.779 90.8766 141.784 90.1799C141.386 89.8904 140.979 89.8859 140.562 90.1664C139.567 90.8449 138.459 91.0439 137.238 90.7635C136.785 90.664 136.374 90.7544 136.003 91.0349C134.546 92.1387 132.895 92.9031 131.049 93.3284C130.607 93.4348 130.205 93.671 129.896 94.0069C129.172 94.8121 128.258 95.2554 127.155 95.3368C126.621 95.373 126.263 95.6444 126.082 96.1511C125.431 97.87 124.228 98.8019 122.473 98.9466C121.857 99.0009 121.609 99.3311 121.726 99.9373C122.206 102.326 122.717 104.705 123.26 107.076C123.531 108.234 123.296 109.156 122.554 109.844C122.369 110.017 122.147 110.146 121.905 110.219C121.663 110.292 121.407 110.308 121.157 110.266C120.907 110.224 120.671 110.125 120.466 109.976C120.261 109.828 120.093 109.634 119.976 109.41L118.116 105.881L117.194 101.512C117.058 100.878 116.664 100.557 116.013 100.548C113.244 100.534 112.349 97.2096 113.991 95.2825C114.126 95.1289 114.201 94.931 114.201 94.7261C114.201 94.5213 114.126 94.3234 113.991 94.1697C112.905 92.9077 112.96 91.2249 114.222 90.1121C115.47 88.9993 116.416 87.7282 117.058 86.2987C117.242 85.8684 117.567 85.514 117.981 85.2945C119.021 84.7064 119.953 83.9917 120.776 83.1503C122.785 81.074 126.313 80.2733 129.041 79.5269C129.511 79.4003 129.982 79.4048 130.452 79.5405C133.519 80.4361 135.107 77.4913 138.391 80.5583C138.744 80.893 139.156 81.0242 139.626 80.9518C142.295 80.5899 143.702 81.7435 143.847 84.4124C143.883 84.9462 144.168 85.2176 144.701 85.2266C145.326 85.2266 146.167 85.6337 146.534 86.1494C147.863 88.0131 147.425 89.7638 145.217 91.4013Z" fill="#25242E"/>
<path d="M285.037 81.5489C284.177 81.0875 283.44 80.5266 282.825 79.8662C282.282 79.2691 282.381 79.1243 283.123 79.4319C284.091 79.839 284.842 80.418 285.376 81.169C285.783 81.7661 285.67 81.8927 285.037 81.5489Z" fill="#25242E"/>
<path d="M219.788 158.21L213.777 173.179C213.496 174.744 212.99 175.866 212.257 176.544L190.733 176.517L191.181 167.872C192.502 168.361 193.353 169.302 193.733 170.695C193.787 170.903 193.909 170.957 194.099 170.858H194.113C194.312 170.758 194.366 170.609 194.275 170.41C192.566 166.737 190.67 163.15 188.589 159.649L181.017 144.246C180.764 143.721 180.723 143.486 180.895 143.54C175.48 131.883 168.64 120.348 170.622 107.075C171.232 103.018 175.982 101.919 177.393 106.234C171.287 113.508 179.497 119.941 183.65 125.043C185.414 127.187 189.553 129.888 192.566 128.802C195.28 127.825 194.845 123.591 193.176 122.112C192.425 121.451 192.321 121.546 192.864 122.397C193.886 123.998 194.122 125.523 193.57 126.97C193.349 127.543 192.926 128.014 192.38 128.294C191.835 128.575 191.205 128.644 190.611 128.49C186.558 127.432 183.708 125.066 182.062 121.393C181.881 120.976 181.845 120.547 181.953 120.103C183.012 116.068 186.088 114.435 191.181 115.204C191.29 115.222 191.353 115.177 191.371 115.069L191.439 114.716C191.443 114.701 191.444 114.685 191.441 114.669C191.438 114.654 191.432 114.639 191.423 114.626C191.414 114.613 191.402 114.602 191.389 114.594C191.375 114.586 191.36 114.582 191.344 114.58C185.464 113.802 182.161 115.675 181.438 120.198C181.32 120.967 181.017 121.049 180.528 120.443C179.687 119.411 179.162 118.213 178.954 116.846C178.891 116.457 178.796 116.448 178.669 116.819C178.597 117 178.461 117.091 178.262 117.091C178.089 117.083 177.921 117.03 177.773 116.938C177.626 116.845 177.504 116.715 177.421 116.561C176.263 114.49 175.733 112.621 175.833 110.957C176.005 108.016 177.782 106.216 181.166 105.556C179.782 101.204 178.692 97.1236 177.896 93.3148C177.339 90.7092 176.294 87.9407 178.9 86.2987C182.93 83.7338 185.984 91.632 186.879 94.0476C189.281 100.494 191.643 106.356 195.117 112.504C203.232 126.907 211.257 141.468 219.191 156.188C219.345 156.478 219.544 157.152 219.788 158.21ZM181.885 106.112C183.595 106.483 185.219 107.157 186.757 108.134C186.793 108.161 186.825 108.157 186.852 108.12L187.015 107.808C187.078 107.682 187.051 107.582 186.934 107.51C185.486 106.533 183.898 105.904 182.17 105.623C182.071 105.605 182.003 105.642 181.967 105.732L181.858 106.058C181.849 106.085 181.858 106.103 181.885 106.112ZM178.791 115.218C179.592 109.6 185.047 109.396 189.064 111.798C189.11 111.816 189.141 111.803 189.159 111.757L189.268 111.432C189.313 111.314 189.281 111.228 189.173 111.174C183.953 108.559 180.302 109.482 178.221 113.942C177.995 114.422 177.995 114.883 178.221 115.326C178.511 115.869 178.701 115.833 178.791 115.218Z" fill="#FAC0C3"/>
<path d="M145.217 91.4012L147.769 98.0101C147.922 98.4172 148.162 98.7656 148.488 99.0551C151.464 101.751 152.496 105.026 151.582 108.88C149.967 115.747 143.928 118.963 137.319 119.927C130.344 120.94 125.02 118.823 121.346 113.576C120.939 112.997 120.433 112.897 119.826 113.277C118.307 114.227 116.674 114.304 114.927 113.508C114.502 113.318 114.177 113.019 113.95 112.612C111.48 108.161 112.869 105.917 118.117 105.881L119.976 109.41C120.093 109.634 120.261 109.828 120.466 109.976C120.671 110.125 120.908 110.224 121.157 110.266C121.407 110.308 121.663 110.292 121.905 110.219C122.148 110.145 122.37 110.017 122.554 109.844C123.296 109.156 123.531 108.233 123.26 107.075C122.717 104.705 122.206 102.326 121.726 99.9372C121.609 99.331 121.858 99.0008 122.473 98.9465C124.228 98.8018 125.431 97.8699 126.083 96.1509C126.264 95.6443 126.621 95.3729 127.155 95.3367C128.258 95.2553 129.172 94.812 129.896 94.0068C130.205 93.6709 130.607 93.4347 131.049 93.3282C132.895 92.903 134.546 92.1385 136.003 91.0348C136.374 90.7543 136.785 90.6638 137.238 90.7634C138.459 91.0438 139.567 90.8448 140.563 90.1662C140.979 89.8858 141.386 89.8903 141.784 90.1798C142.779 90.8764 143.924 91.2836 145.217 91.4012ZM141.431 99.9236C141.612 100.539 141.942 101 142.422 101.308C142.534 101.381 142.663 101.424 142.797 101.432C142.931 101.441 143.064 101.414 143.185 101.355C143.305 101.297 143.408 101.207 143.484 101.097C143.559 100.986 143.605 100.858 143.616 100.724C143.743 99.1772 143.584 97.7794 143.141 96.5309C143.076 96.351 142.969 96.1888 142.829 96.0579C142.689 95.927 142.521 95.8311 142.338 95.7781C142.155 95.7251 141.963 95.7164 141.777 95.7529C141.591 95.7895 141.416 95.8701 141.268 95.9881C140.246 96.8023 139.699 97.7432 139.626 98.8108C139.617 99.0189 139.69 99.1953 139.843 99.3401C140.015 99.5029 140.169 99.5436 140.305 99.4622C140.857 99.1455 141.232 99.2994 141.431 99.9236ZM131.932 103.099C132.176 103.696 132.588 104.058 133.167 104.185C133.252 104.206 133.342 104.209 133.429 104.193C133.516 104.176 133.599 104.141 133.672 104.09C133.745 104.039 133.807 103.972 133.853 103.895C133.899 103.818 133.929 103.732 133.94 103.642C134.121 102.149 133.949 100.647 133.424 99.1365C133.262 98.6389 132.927 98.4489 132.42 98.5665C131.271 98.8199 130.552 99.5074 130.262 100.629C130.063 101.407 130.366 101.973 131.172 102.326C131.524 102.479 131.778 102.737 131.932 103.099ZM140.088 107.971C141.246 107.799 142.196 107.188 142.937 106.139C143.444 105.424 143.295 105.234 142.49 105.569C141.458 106.003 140.418 106.229 139.368 106.248C138.961 106.257 138.613 106.397 138.323 106.668C137.093 107.799 135.555 108.288 133.709 108.134C133.601 108.125 133.524 108.17 133.479 108.27L133.302 108.622C133.275 108.677 133.293 108.717 133.357 108.745C135.329 109.432 137.147 109.319 138.812 108.405C139.21 108.188 139.635 108.043 140.088 107.971ZM115.687 110.169C115.669 110.314 115.624 110.45 115.552 110.577C115.154 111.255 115.28 111.373 115.932 110.929C116.303 110.685 116.71 110.577 117.153 110.604C117.723 110.649 117.927 110.396 117.764 109.844C117.519 109.066 117.017 108.577 116.257 108.378C115.678 108.233 115.461 108.451 115.606 109.03C115.715 109.423 115.769 109.762 115.687 110.169Z" fill="#FAC0C3"/>
<path d="M381.647 90.4512C384.94 92.6045 388.075 95.0065 391.052 97.6573C391.658 98.2001 392.192 98.3675 392.653 98.1594C393.114 97.9604 393.63 97.5442 394.2 96.9109C394.462 97.8247 393.788 98.6525 392.178 99.3944L381.891 91.4826C381.285 91.3017 381.204 90.9579 381.647 90.4512Z" fill="#25242E"/>
<path d="M399.777 91.4148C400.094 91.5324 400.261 91.7179 400.279 91.9712C399.013 93.5545 397.882 94.3823 396.886 94.4546L399.777 91.4148Z" fill="#25242E"/>
<path d="M140.305 99.4623C140.169 99.5437 140.015 99.503 139.843 99.3401C139.69 99.1954 139.617 99.019 139.626 98.8109C139.699 97.7433 140.246 96.8024 141.268 95.9882C141.417 95.8701 141.591 95.7896 141.777 95.753C141.963 95.7165 142.155 95.7251 142.338 95.7782C142.521 95.8312 142.689 95.9271 142.829 96.058C142.969 96.1889 143.076 96.3511 143.141 96.531C143.584 97.7795 143.743 99.1773 143.616 100.724C143.605 100.858 143.559 100.986 143.484 101.097C143.408 101.208 143.305 101.297 143.185 101.356C143.064 101.414 142.931 101.441 142.797 101.433C142.663 101.424 142.534 101.381 142.422 101.308C141.942 101 141.612 100.539 141.431 99.9237C141.232 99.2994 140.857 99.1456 140.305 99.4623Z" fill="#25242E"/>
<path d="M131.172 102.326C130.366 101.973 130.063 101.407 130.262 100.629C130.552 99.5073 131.271 98.8198 132.42 98.5664C132.927 98.4488 133.261 98.6388 133.424 99.1364C133.949 100.647 134.121 102.149 133.94 103.642C133.929 103.731 133.899 103.818 133.853 103.895C133.806 103.972 133.745 104.039 133.672 104.09C133.599 104.141 133.516 104.176 133.429 104.193C133.342 104.209 133.252 104.206 133.166 104.185C132.587 104.058 132.176 103.696 131.932 103.099C131.778 102.737 131.524 102.479 131.172 102.326Z" fill="#25242E"/>
<path d="M308.622 104.28C306.361 106.813 303.696 108.962 300.629 110.726C300.231 110.952 299.838 110.938 299.449 110.685C297.621 109.491 296.241 107.881 295.31 105.854C295.653 105.628 295.88 105.61 295.988 105.8L297.847 108.215C298.298 108.8 298.954 109.191 299.682 109.31C300.411 109.428 301.157 109.265 301.769 108.853L308.622 104.28Z" fill="#25242E"/>
<path d="M386.546 104.999C386.627 105.18 386.767 105.316 386.966 105.406C386.623 105.469 386.351 105.632 386.152 105.895C384.877 106.085 383.918 106.659 383.275 107.618C382.787 108.351 382.384 108.523 382.067 108.134C382.692 106.496 384.184 105.451 386.546 104.999Z" fill="#883A45"/>
<path d="M181.166 105.556C177.783 106.216 176.005 108.016 175.833 110.957C175.734 112.621 176.263 114.49 177.421 116.561C177.505 116.715 177.626 116.845 177.773 116.938C177.921 117.03 178.089 117.083 178.262 117.091C178.461 117.091 178.597 117 178.669 116.819C178.796 116.448 178.891 116.457 178.954 116.846C179.162 118.213 179.687 119.411 180.529 120.443C181.017 121.049 181.32 120.967 181.438 120.198C182.162 115.675 185.464 113.802 191.344 114.58C191.36 114.582 191.375 114.586 191.389 114.594C191.403 114.602 191.414 114.613 191.423 114.626C191.432 114.639 191.439 114.654 191.441 114.669C191.444 114.685 191.443 114.701 191.439 114.716L191.372 115.069C191.353 115.177 191.29 115.222 191.182 115.204C186.088 114.435 183.012 116.068 181.953 120.103C181.845 120.547 181.881 120.976 182.062 121.393C183.709 125.066 186.558 127.432 190.612 128.49C191.205 128.644 191.835 128.575 192.381 128.294C192.926 128.014 193.35 127.543 193.57 126.97C194.122 125.523 193.887 123.998 192.864 122.397C192.322 121.546 192.426 121.451 193.176 122.112C194.846 123.591 195.28 127.825 192.566 128.802C189.553 129.888 185.414 127.187 183.65 125.043C179.497 119.941 171.287 113.508 177.394 106.234C178.615 105.546 179.873 105.32 181.166 105.556Z" fill="#25242E"/>
<path d="M138.812 108.406C137.147 109.319 135.329 109.432 133.357 108.745C133.293 108.718 133.275 108.677 133.302 108.623L133.479 108.27C133.524 108.17 133.601 108.125 133.709 108.134C135.555 108.288 137.093 107.799 138.323 106.668C138.613 106.397 138.961 106.257 139.368 106.248C140.418 106.23 141.458 106.003 142.49 105.569C143.295 105.234 143.444 105.424 142.937 106.139C142.196 107.189 141.246 107.799 140.088 107.971C139.635 108.044 139.21 108.188 138.812 108.406Z" fill="#883A45"/>
<path d="M181.886 106.112C181.858 106.103 181.849 106.085 181.858 106.058L181.967 105.732C182.003 105.641 182.071 105.605 182.17 105.623C183.899 105.904 185.486 106.533 186.934 107.51C187.051 107.582 187.079 107.682 187.015 107.808L186.852 108.12C186.825 108.156 186.794 108.161 186.757 108.134C185.219 107.157 183.595 106.483 181.886 106.112Z" fill="#25242E"/>
<path d="M386.966 105.406C392.028 109.233 392.313 114.431 392.191 120.402C392.182 120.836 392.363 121.176 392.734 121.42C396.407 123.772 397.257 126.853 395.285 130.662C395.135 130.953 394.903 131.19 394.62 131.34L394.023 131.666C393.851 131.385 393.711 131.254 393.602 131.272C395.909 128.983 396.312 126.631 394.81 124.215C394.037 122.98 392.747 122.383 391.757 121.352C391.612 121.195 391.505 121.009 391.441 120.807C391.378 120.605 391.36 120.393 391.39 120.185C392.164 114.797 390.97 108.908 386.152 105.895C386.351 105.633 386.623 105.47 386.966 105.406Z" fill="#25242E"/>
<path d="M386.152 105.895C390.97 108.907 392.164 114.797 391.391 120.185C391.361 120.393 391.378 120.605 391.442 120.807C391.505 121.009 391.613 121.195 391.757 121.352C392.748 122.383 394.037 122.98 394.81 124.215C396.312 126.631 395.91 128.983 393.603 131.272C390.563 132.806 382.163 134.475 381.484 128.911C381.421 128.404 381.575 127.979 381.945 127.635C383.275 126.405 384.931 125.785 386.912 125.776C387.22 125.776 387.356 125.622 387.319 125.315L387.252 124.84C387.224 124.613 387.098 124.532 386.872 124.595L382.529 125.817L382.57 123.102C387.102 124.46 389.043 122.356 388.392 116.792C388.392 116.765 388.396 116.724 388.405 116.67C388.432 116.489 388.324 116.466 388.079 116.602C388.004 116.646 387.944 116.711 387.907 116.789C387.871 116.867 387.86 116.953 387.876 117.036C388.364 119.217 387.858 120.99 386.356 122.356C386.065 122.621 385.716 122.814 385.337 122.92C384.958 123.027 384.559 123.044 384.171 122.971C383.783 122.897 383.417 122.735 383.102 122.496C382.786 122.258 382.53 121.95 382.353 121.596C380.222 117.281 381.565 113.712 381.579 109.233C381.47 108.998 381.633 108.632 382.068 108.134C382.384 108.523 382.787 108.351 383.275 107.618C383.918 106.659 384.877 106.085 386.152 105.895Z" fill="#C27065"/>
<path d="M115.687 110.169C115.769 109.762 115.715 109.423 115.606 109.03C115.461 108.451 115.678 108.233 116.257 108.378C117.017 108.577 117.519 109.066 117.764 109.844C117.927 110.396 117.723 110.649 117.153 110.604C116.71 110.577 116.303 110.685 115.932 110.929C115.28 111.373 115.154 111.255 115.552 110.577C115.624 110.45 115.669 110.314 115.687 110.169Z" fill="#25242E"/>
<path d="M228.474 180.561C228.166 180.588 227.876 180.67 227.605 180.805C227.216 180.995 226.809 181.095 226.384 181.104L216.586 181.239C216.514 181.24 216.444 181.223 216.38 181.19C216.317 181.157 216.263 181.109 216.222 181.05C216.182 180.991 216.157 180.923 216.149 180.852C216.142 180.781 216.152 180.709 216.179 180.642C217.508 177.186 218.875 173.644 220.277 170.016C220.34 169.854 220.29 169.745 220.128 169.691H220.114C219.987 169.646 219.906 169.682 219.87 169.799C218.621 173.301 217.359 176.662 216.084 179.882C215.917 180.305 215.621 180.665 215.239 180.911C214.857 181.157 214.407 181.276 213.953 181.253L212.935 181.212C212.748 181.202 212.565 181.146 212.404 181.05C212.243 180.953 212.107 180.82 212.009 180.66C211.91 180.5 211.852 180.319 211.838 180.131C211.824 179.944 211.856 179.756 211.931 179.584C213.053 177.042 213.668 174.906 213.776 173.178L219.788 158.21L238.407 109.206C238.502 108.947 238.676 108.723 238.904 108.565C239.132 108.407 239.404 108.323 239.683 108.324L252.711 108.31C253.112 108.309 253.508 108.405 253.865 108.59C254.221 108.775 254.527 109.043 254.755 109.372C254.984 109.701 255.128 110.08 255.176 110.477C255.225 110.874 255.175 111.276 255.032 111.649L229.234 179.584C229.144 179.825 229 180.039 228.813 180.208C228.686 180.326 228.573 180.443 228.474 180.561ZM236.915 125.518C235.838 127.554 235.078 129.431 234.635 131.15C234.436 131.937 234.522 131.973 234.893 131.258C235.643 129.82 236.317 127.906 236.915 125.518C237.666 124.396 238.15 123.415 238.367 122.573C238.873 120.492 238.71 120.438 237.878 122.41C237.652 122.953 237.331 123.989 236.915 125.518ZM235.391 148.89C235.895 149.072 236.581 148.69 237.297 147.825C238.013 146.961 238.701 145.687 239.209 144.283C239.718 142.878 240.005 141.459 240.008 140.336C240.011 139.214 239.729 138.481 239.225 138.299C238.721 138.116 238.035 138.499 237.319 139.363C236.603 140.227 235.915 141.501 235.407 142.906C234.898 144.31 234.611 145.73 234.608 146.852C234.605 147.974 234.887 148.707 235.391 148.89Z" fill="#BBDDFA"/>
<path d="M381.579 109.233C381.565 113.711 380.222 117.281 382.352 121.596C382.53 121.95 382.786 122.258 383.102 122.496C383.417 122.735 383.783 122.897 384.171 122.971C384.558 123.044 384.957 123.027 385.336 122.92C385.715 122.814 386.064 122.621 386.356 122.356C387.858 120.99 388.364 119.217 387.876 117.036C387.86 116.953 387.871 116.867 387.907 116.789C387.944 116.711 388.004 116.646 388.079 116.602C388.323 116.466 388.432 116.489 388.405 116.67C388.396 116.724 388.391 116.765 388.391 116.792C389.043 122.356 387.102 124.459 382.569 123.102C379.516 119.072 380.425 114.186 380.914 109.667C381.104 109.36 381.325 109.215 381.579 109.233Z" fill="#25242E"/>
<path d="M189.064 111.798C185.047 109.396 179.592 109.6 178.791 115.218C178.701 115.833 178.511 115.869 178.221 115.326C177.995 114.883 177.995 114.422 178.221 113.942C180.302 109.482 183.953 108.559 189.173 111.174C189.282 111.228 189.313 111.314 189.268 111.432L189.159 111.757C189.141 111.803 189.11 111.816 189.064 111.798Z" fill="#25242E"/>
<path d="M313.182 115.991L324.65 117.946L345.141 123.17L380.507 134.339L382.081 137.772L382.651 138.926C381.312 140.328 380.86 141.853 381.294 143.499C381.113 144.015 381.226 144.576 381.633 145.182C380.973 146.241 380.995 147.186 381.701 148.018C384.429 151.221 389.816 149.755 392.463 147.258L431.37 262.677C431.27 262.768 431.175 262.858 431.085 262.949C428.326 262.922 425.245 263.46 421.843 264.564C412.679 267.531 404.74 270.865 398.027 274.565C397.937 274.619 397.836 274.661 397.728 274.688C397.077 274.859 396.733 274.742 396.697 274.335C396.579 273.195 396.434 273.077 396.262 273.982C396.235 274.145 396.249 274.308 396.303 274.47C396.448 274.896 396.339 275.239 395.977 275.502L386.017 282.844C383.293 276.104 381.412 271.277 380.371 268.364C374.717 252.567 369.641 236.635 365.145 220.567C360.838 204.011 356.22 187.554 351.289 171.197C351.226 170.989 351.09 170.917 350.882 170.98H350.868C350.66 171.043 350.588 171.179 350.651 171.387C355.13 186.116 359.323 200.935 363.231 215.845L365.674 283.549C365.692 284.011 365.47 284.237 365.009 284.228L350.583 283.916C350.656 248.505 350.163 213.126 349.104 177.779C349.068 176.585 349.262 174.228 349.688 170.709C349.706 170.555 349.769 170.433 349.878 170.342C349.968 170.261 350.086 170.243 350.231 170.288C350.375 170.324 350.448 170.265 350.448 170.111C350.393 168.655 350.19 167.302 349.837 166.054C347.611 158.264 345.422 150.656 343.269 143.228C343.147 142.796 342.924 142.4 342.617 142.072C342.31 141.743 341.928 141.493 341.505 141.341C337.687 139.948 333.796 138.437 329.834 136.809C329.816 136.8 329.802 136.804 329.793 136.822L329.671 137.135C329.598 137.325 329.653 137.456 329.834 137.528C333.471 139.012 337.157 140.45 340.894 141.844C341.337 142.012 341.735 142.281 342.057 142.63C342.38 142.978 342.618 143.396 342.753 143.852C344.535 150.058 346.236 156.057 347.856 161.847C349.606 168.117 348.534 175.92 348.67 183.221C349.362 216.795 350.312 250.355 349.932 283.956L347.448 283.984L317.919 283.427L313.182 115.991ZM358.168 165.545C358.215 165.528 358.215 165.385 358.168 165.125C358.122 164.864 358.029 164.491 357.896 164.027C357.763 163.563 357.592 163.017 357.393 162.421C357.193 161.824 356.97 161.188 356.735 160.549C356.5 159.91 356.258 159.28 356.023 158.697C355.787 158.113 355.564 157.586 355.364 157.147C355.165 156.707 354.994 156.363 354.861 156.135C354.728 155.906 354.635 155.797 354.588 155.815C354.541 155.832 354.541 155.975 354.588 156.235C354.634 156.495 354.727 156.868 354.86 157.332C354.993 157.796 355.164 158.342 355.363 158.939C355.563 159.536 355.786 160.172 356.021 160.811C356.256 161.45 356.498 162.079 356.734 162.663C356.969 163.247 357.192 163.773 357.392 164.213C357.591 164.652 357.762 164.996 357.895 165.225C358.029 165.453 358.121 165.562 358.168 165.545Z" fill="#BBDDFA"/>
<path d="M382.529 125.817L386.871 124.595C387.097 124.532 387.224 124.613 387.251 124.84L387.319 125.315C387.355 125.622 387.22 125.776 386.912 125.776C384.931 125.785 383.275 126.405 381.945 127.635C381.574 127.979 381.42 128.404 381.484 128.911C382.162 134.475 390.563 132.806 393.602 131.272C393.711 131.254 393.851 131.385 394.023 131.666C390.603 133.647 386.853 133.982 382.773 132.67C381.416 131.783 380.697 130.585 380.615 129.074C380.597 128.63 380.371 128.363 379.937 128.273C368.646 125.866 357.047 124.166 345.141 123.17L324.649 117.946C330.476 118.489 336.194 119.289 341.803 120.348C354.007 122.637 366.217 124.912 378.43 127.174C380.095 127.481 381.461 127.029 382.529 125.817Z" fill="#883A45"/>
<path d="M236.915 125.518C237.331 123.989 237.652 122.953 237.878 122.41C238.711 120.438 238.874 120.492 238.367 122.573C238.15 123.415 237.666 124.396 236.915 125.518Z" fill="#25242E"/>
<path d="M151.405 133.579L157.268 144.802C157.639 145.499 157.49 145.639 156.82 145.223C154.133 143.54 151.514 141.55 148.963 139.252C148.827 139.131 148.668 139.04 148.496 138.983C148.324 138.927 148.143 138.906 147.963 138.922C147.783 138.939 147.61 138.992 147.452 139.079C147.295 139.166 147.158 139.285 147.049 139.428L144.878 142.332C144.74 142.513 144.54 142.635 144.316 142.675C144.093 142.715 143.862 142.671 143.67 142.549L137.509 138.6C137.066 138.32 136.613 138.302 136.152 138.546L126.232 143.676C125.985 143.802 125.701 143.833 125.433 143.763C125.165 143.693 124.933 143.527 124.78 143.296C121.206 137.877 119.247 132.114 118.904 126.007C124.223 121.999 130.194 121.026 136.817 123.089C140.671 124.292 143.082 125.315 144.05 126.156C146.764 128.544 149.216 131.019 151.405 133.579ZM126.49 126.075C126.942 127.133 127.697 127.567 128.756 127.377C131.864 126.821 137.903 128.585 140.997 129.494C141.431 129.621 141.87 129.648 142.313 129.576L142.897 129.481C143.476 129.381 143.933 129.576 144.267 130.064C145.851 132.371 147.009 134.733 147.741 137.148C147.882 137.588 148.163 137.97 148.542 138.234C150.704 139.709 152.74 141.346 154.649 143.147C154.748 143.246 154.866 143.314 155.002 143.35C155.128 143.386 155.241 143.359 155.341 143.269C155.649 143.006 155.707 142.694 155.517 142.332C153.093 137.727 150.18 133.416 146.778 129.399C143.236 125.22 138.378 123.917 133.234 122.804C129.1 121.899 125.029 122.799 121.021 125.505C120.505 125.85 120.103 126.341 119.864 126.915C119.625 127.49 119.56 128.122 119.677 128.734C120.627 133.701 122.541 138.401 125.418 142.834C125.479 142.927 125.573 142.994 125.68 143.022C125.788 143.049 125.903 143.036 126.001 142.984L135.962 137.854C136.134 137.763 136.147 137.655 136.003 137.528C132.085 134.117 128.58 130.34 125.485 126.197C125.482 126.197 125.478 126.195 125.476 126.193C125.473 126.19 125.472 126.187 125.472 126.183C125.472 126.179 125.473 126.176 125.476 126.173C125.478 126.171 125.482 126.17 125.485 126.17L125.879 125.898C126.159 125.708 126.363 125.767 126.49 126.075ZM129.217 127.947C128.15 127.857 127.951 128.228 128.62 129.06C132.538 134.009 137.527 138.193 143.589 141.613C144.05 141.875 144.435 141.794 144.742 141.369L146.683 138.695C147.027 138.234 147.126 137.727 146.981 137.175C146.565 135.556 145.887 133.968 144.946 132.412C144.322 131.372 143.462 130.702 142.367 130.404C137.482 129.083 133.099 128.264 129.217 127.947Z" fill="#25242E"/>
<path d="M126.49 126.074C126.363 125.767 126.16 125.708 125.879 125.898L125.486 126.169C125.482 126.169 125.478 126.171 125.476 126.173C125.473 126.176 125.472 126.179 125.472 126.183C125.472 126.187 125.473 126.19 125.476 126.193C125.478 126.195 125.482 126.197 125.486 126.197C128.58 130.34 132.085 134.117 136.003 137.528C136.148 137.655 136.134 137.763 135.962 137.854L126.001 142.984C125.903 143.036 125.788 143.049 125.681 143.022C125.573 142.994 125.479 142.927 125.418 142.834C122.541 138.401 120.627 133.701 119.677 128.734C119.56 128.122 119.625 127.489 119.864 126.915C120.103 126.341 120.505 125.85 121.021 125.504C125.029 122.799 129.1 121.899 133.234 122.804C138.378 123.917 143.236 125.219 146.778 129.399C150.18 133.416 153.093 137.727 155.518 142.332C155.708 142.694 155.649 143.006 155.341 143.269C155.242 143.359 155.129 143.386 155.002 143.35C154.866 143.314 154.749 143.246 154.649 143.146C152.74 141.346 150.704 139.708 148.542 138.234C148.163 137.97 147.882 137.588 147.742 137.148C147.009 134.733 145.851 132.371 144.267 130.064C143.933 129.576 143.476 129.381 142.897 129.481L142.313 129.576C141.87 129.648 141.431 129.621 140.997 129.494C137.903 128.585 131.864 126.821 128.756 127.377C127.698 127.567 126.942 127.133 126.49 126.074Z" fill="white"/>
<path d="M382.773 132.67C382.891 133.575 382.135 134.131 380.507 134.339L345.142 123.17C357.048 124.166 368.646 125.866 379.937 128.273C380.371 128.363 380.597 128.63 380.615 129.074C380.697 130.585 381.416 131.783 382.773 132.67Z" fill="#F05467"/>
<path d="M118.904 126.007C119.248 132.113 121.206 137.877 124.78 143.296C124.933 143.526 125.166 143.693 125.433 143.763C125.701 143.833 125.986 143.802 126.232 143.676L136.152 138.546C136.614 138.302 137.066 138.32 137.509 138.6L143.67 142.549C143.862 142.671 144.093 142.715 144.316 142.675C144.54 142.635 144.74 142.513 144.878 142.332L147.049 139.428C147.158 139.285 147.295 139.166 147.453 139.079C147.61 138.992 147.784 138.939 147.963 138.922C148.143 138.906 148.325 138.926 148.497 138.983C148.669 139.04 148.827 139.131 148.963 139.252C151.514 141.55 154.133 143.54 156.82 145.223C157.49 145.639 157.639 145.499 157.268 144.802L151.406 133.579L173.567 140.826C173.73 141.26 173.716 141.554 173.526 141.708L170.432 150.502C169.928 151.945 169.857 153.506 170.228 154.994L175.385 175.35C175.485 175.721 175.72 175.97 176.091 176.096C176.344 176.187 176.607 176.209 176.878 176.164C176.95 176.246 176.977 176.354 176.959 176.49C176.932 176.707 176.81 176.815 176.593 176.815L146.385 177.019C145.994 177.019 145.616 177.16 145.321 177.417C145.027 177.674 144.836 178.03 144.783 178.417C144.656 179.294 144.815 180.077 145.258 180.765L98.1269 181.375L96.4713 172.554L102.442 163.72C106.188 156.636 106.717 149.439 104.03 142.129C102.388 137.65 97.1363 129.779 91.423 131.666C90.8349 131.403 90.559 131.127 90.5952 130.838C93.1646 129.264 95.8516 127.979 98.6562 126.984C101.081 126.115 103.985 125.708 107.369 125.762C111.313 125.826 115.158 125.907 118.904 126.007Z" fill="#56B1F0"/>
<path d="M236.915 125.518C236.318 127.907 235.644 129.82 234.893 131.258C234.522 131.973 234.436 131.937 234.635 131.15C235.078 129.431 235.838 127.554 236.915 125.518Z" fill="#25242E"/>
<path d="M129.218 127.947C133.099 128.264 137.482 129.083 142.368 130.404C143.462 130.702 144.322 131.372 144.946 132.412C145.887 133.968 146.565 135.556 146.982 137.175C147.126 137.727 147.027 138.234 146.683 138.695L144.742 141.369C144.435 141.794 144.05 141.875 143.589 141.613C137.527 138.193 132.538 134.009 128.62 129.06C127.951 128.228 128.15 127.857 129.218 127.947Z" fill="white"/>
<path d="M90.5951 130.838C90.5589 131.127 90.8349 131.403 91.4229 131.666C90.2468 132.245 89.2335 132.923 88.3831 133.701C83.7509 137.899 78.9605 142.382 74.0117 147.15L72.7767 148.045L36.6921 147.489L40.9398 147.055C42.2788 147.462 43.482 147.426 44.5496 146.946C44.9205 146.783 45.097 146.498 45.0789 146.091C44.8889 140.627 46.73 136.578 50.6021 133.945C50.765 133.837 50.9459 133.787 51.145 133.796C51.2626 133.796 51.3757 133.787 51.4843 133.769C52.4161 133.588 52.4749 133.737 51.6607 134.217C47.0919 136.976 45.1331 141.093 45.7845 146.566C45.811 146.773 45.9113 146.964 46.0663 147.101C46.2213 147.239 46.4204 147.314 46.6259 147.313L72.0032 147.299C72.5279 147.299 72.9848 147.118 73.3739 146.756L87.6638 133.172L90.5951 130.838Z" fill="#25242E"/>
<path d="M102.442 163.72L95.0733 172.88C95.0151 172.956 94.9348 173.012 94.8433 173.04C94.7519 173.069 94.654 173.068 94.563 173.038C94.4721 173.008 94.3926 172.951 94.3358 172.874C94.2789 172.797 94.2473 172.704 94.2454 172.609L94.1369 168.239C94.8154 166.719 95.6297 165.443 97.231 164.765C98.6243 164.168 99.3616 163.095 99.443 161.548C99.6964 157.133 99.6828 152.827 99.4023 148.629C99.2938 146.937 98.3936 146.128 96.7018 146.2L74.0115 147.15C78.9603 142.382 83.7507 137.899 88.3829 133.701C89.2333 132.923 90.2466 132.245 91.4227 131.666C97.136 129.779 102.388 137.65 104.03 142.129C106.717 149.439 106.188 156.636 102.442 163.72Z" fill="white"/>
<path d="M87.6635 133.172L73.3735 146.756C72.9845 147.118 72.5276 147.299 72.0029 147.299L46.6256 147.313C46.42 147.314 46.221 147.239 46.066 147.101C45.9109 146.964 45.8107 146.774 45.7842 146.566C45.1328 141.093 47.0915 136.976 51.6604 134.217C52.4746 133.737 52.4158 133.588 51.4839 133.769C51.3754 133.787 51.2623 133.796 51.1447 133.796C50.9456 133.787 50.7647 133.837 50.6018 133.946C46.7296 136.578 44.8885 140.627 45.0785 146.091C45.0966 146.498 44.9202 146.783 44.5493 146.946C43.4817 147.426 42.2784 147.462 40.9395 147.055C40.3831 141.749 42.3373 135.94 47.4941 133.864C48.7969 133.339 51.1854 133.086 54.6595 133.104C65.3894 133.177 76.3908 133.199 87.6635 133.172Z" fill="#F0E760"/>
<path d="M395.923 135.018L394.783 137.813C390.468 140.039 386.424 140.41 382.651 138.926L382.081 137.772C384.904 139.292 387.862 139.591 390.956 138.668C392.883 138.089 394.539 136.872 395.923 135.018Z" fill="#25242E"/>
<path d="M350.583 283.916L349.932 283.956C350.312 250.355 349.362 216.795 348.67 183.221C348.534 175.92 349.606 168.117 347.856 161.847C346.236 156.057 344.535 150.058 342.753 143.852C342.618 143.396 342.38 142.978 342.057 142.63C341.735 142.281 341.337 142.012 340.894 141.844C337.157 140.45 333.471 139.012 329.834 137.528C329.653 137.456 329.599 137.325 329.671 137.135L329.793 136.822C329.802 136.804 329.816 136.8 329.834 136.809C333.796 138.437 337.687 139.948 341.505 141.341C341.928 141.493 342.31 141.743 342.617 142.072C342.924 142.4 343.147 142.796 343.269 143.228C345.422 150.656 347.611 158.264 349.837 166.054C350.19 167.302 350.393 168.655 350.448 170.111C350.448 170.265 350.375 170.324 350.231 170.288C350.086 170.243 349.968 170.261 349.878 170.342C349.769 170.433 349.706 170.555 349.688 170.709C349.263 174.228 349.068 176.585 349.104 177.779C350.163 213.126 350.656 248.505 350.583 283.916Z" fill="#25242E"/>
<path d="M235.407 142.906C234.348 145.831 234.341 148.51 235.391 148.89C236.441 149.27 238.151 147.207 239.209 144.282C240.268 141.358 240.275 138.679 239.225 138.299C238.175 137.918 236.466 139.981 235.407 142.906Z" fill="white"/>
<path d="M394.783 137.813C394.611 141.088 393.838 144.237 392.463 147.258C389.816 149.755 384.429 151.221 381.701 148.018C380.996 147.186 380.973 146.241 381.633 145.182C385.044 146.539 388.464 146.494 391.893 145.046C392.101 144.956 392.164 144.807 392.083 144.599L391.961 144.259C391.955 144.242 391.945 144.227 391.933 144.213C391.921 144.2 391.906 144.189 391.89 144.181C391.873 144.174 391.855 144.17 391.837 144.169C391.819 144.168 391.801 144.171 391.784 144.178C388.057 145.671 384.56 145.445 381.294 143.499C380.86 141.853 381.312 140.328 382.651 138.926C386.424 140.41 390.468 140.039 394.783 137.813Z" fill="#C27065"/>
<path d="M173.567 140.826L180.895 143.54C180.723 143.486 180.764 143.721 181.017 144.246L173.526 141.708C173.716 141.554 173.729 141.26 173.567 140.826Z" fill="#25242E"/>
<path d="M173.526 141.708L181.017 144.246L188.589 159.649C188.806 161.114 189.322 162.526 190.136 163.883C190.96 165.249 191.308 166.579 191.181 167.872C189.815 170.098 189.372 172.532 189.851 175.173C189.879 175.33 189.872 175.491 189.831 175.644C189.79 175.798 189.716 175.94 189.614 176.062C189.511 176.184 189.384 176.281 189.239 176.348C189.095 176.415 188.938 176.45 188.779 176.449L182.713 176.422L176.878 176.164C176.606 176.209 176.344 176.187 176.091 176.096C175.72 175.97 175.484 175.721 175.385 175.35L170.228 154.994C169.857 153.506 169.927 151.945 170.432 150.502L173.526 141.708Z" fill="white"/>
<path d="M381.294 143.499C384.56 145.444 388.057 145.671 391.784 144.178C391.801 144.171 391.819 144.168 391.837 144.169C391.855 144.17 391.873 144.174 391.89 144.181C391.906 144.189 391.921 144.2 391.933 144.213C391.945 144.226 391.955 144.242 391.961 144.259L392.083 144.598C392.164 144.807 392.101 144.956 391.893 145.046C388.464 146.494 385.044 146.539 381.633 145.182C381.226 144.576 381.113 144.015 381.294 143.499Z" fill="#883A45"/>
<path d="M94.1369 168.239C93.8835 168.157 93.6755 168.388 93.5126 168.931C93.585 168.587 93.585 168.293 93.5126 168.049C93.395 167.614 93.11 167.402 92.6577 167.411L82.5746 167.587C81.2356 167.614 80.5661 168.297 80.5661 169.636L80.539 176.829C80.539 178.295 81.2718 178.978 82.7374 178.878L89.3464 178.43C90.3868 178.629 90.9794 178.828 91.1242 179.027C87.8581 179.235 86.008 179.362 85.5737 179.407C83.701 179.634 81.8961 179.738 80.159 179.719C65.3398 179.557 50.7919 179.525 36.5155 179.625C31.5622 179.652 26.731 178.905 21.7505 179.027C20.3844 179.064 19.0273 179.335 17.6793 179.842C17.5163 179.904 17.3362 179.904 17.1751 179.841C17.014 179.778 16.8839 179.657 16.8108 179.502C16.5394 178.914 16.6434 178.638 17.1229 178.675C17.711 179.091 18.2131 179.195 18.6293 178.987C23.2569 176.72 25.7539 178.552 29.703 178.607C43.1652 178.833 59.6627 178.874 79.1955 178.729C79.6207 178.72 79.8333 178.503 79.8333 178.077L79.6705 167.954C79.6614 167.655 79.5076 167.506 79.209 167.506L18.0457 167.248C17.7218 167.248 17.4111 167.377 17.1821 167.606C16.953 167.835 16.8243 168.145 16.8243 168.469L16.8515 178.512C16.4082 178.566 16.1594 178.435 16.1051 178.118C15.4447 174.662 15.5035 171.238 16.2815 167.845C16.3822 167.42 16.6232 167.042 16.9655 166.771C17.3078 166.5 17.7314 166.353 18.1679 166.352L79.9419 166.027C80.168 166.027 80.2857 165.914 80.2947 165.687L80.3083 165.267C80.3083 165.04 80.1952 164.923 79.969 164.914L70.6323 164.48L79.8333 164.181C80.2766 164.172 80.6792 164.299 81.0411 164.561C81.5568 164.932 82.1268 165.095 82.751 165.05C83.2396 165.004 83.5426 164.746 83.6603 164.276C84.9721 159.047 85.4199 153.736 85.0038 148.344C84.9887 148.158 84.9327 147.978 84.8397 147.816C84.7467 147.655 84.6191 147.516 84.466 147.409C84.3129 147.303 84.1381 147.232 83.9542 147.201C83.7703 147.17 83.5818 147.18 83.4024 147.231C79.9283 148.199 76.3863 148.471 72.7765 148.045L74.0115 147.15L96.7017 146.2C98.3936 146.127 99.2938 146.937 99.4023 148.629C99.6828 152.827 99.6964 157.133 99.443 161.548C99.3616 163.095 98.6243 164.167 97.231 164.765C95.6297 165.443 94.8154 166.719 94.1369 168.239ZM98.6152 161.901L98.9952 149.728C99.0061 149.391 98.9504 149.056 98.8315 148.74C98.7125 148.425 98.5326 148.136 98.3019 147.89C98.0713 147.645 97.7945 147.447 97.4873 147.308C97.1801 147.169 96.8486 147.092 96.5117 147.082L87.4736 146.797C87.2276 146.789 86.9836 146.791 86.7559 146.804C86.5281 146.816 86.3211 146.838 86.1469 146.868C85.9727 146.898 85.8347 146.936 85.741 146.98C85.6472 147.024 85.5996 147.072 85.6009 147.123L85.0852 163.665C85.0871 163.766 85.2819 163.867 85.6275 163.949C85.9731 164.03 86.4414 164.084 86.9308 164.1L95.9689 164.385C96.3058 164.395 96.6415 164.34 96.9568 164.221C97.2722 164.102 97.561 163.922 97.8068 163.691C98.0525 163.461 98.2504 163.184 98.3892 162.877C98.5279 162.569 98.6047 162.238 98.6152 161.901Z" fill="#883A45"/>
<path d="M98.6155 161.901C98.605 162.238 98.5281 162.57 98.3894 162.877C98.2507 163.184 98.0528 163.461 97.807 163.691C97.5613 163.922 97.2725 164.102 96.9571 164.221C96.6418 164.34 96.3061 164.395 95.9692 164.385L86.9311 164.1C86.4417 164.084 85.9733 164.03 85.6278 163.949C85.2822 163.867 85.0873 163.766 85.0854 163.665L85.6011 147.123C85.5999 147.072 85.6475 147.024 85.7412 146.98C85.835 146.936 85.9729 146.898 86.1472 146.868C86.3214 146.838 86.5284 146.816 86.7561 146.804C86.9839 146.791 87.2279 146.789 87.4739 146.797L96.512 147.082C96.8489 147.092 97.1804 147.169 97.4876 147.308C97.7947 147.447 98.0716 147.645 98.3022 147.89C98.5328 148.136 98.7128 148.425 98.8317 148.74C98.9507 149.056 99.0063 149.391 98.9955 149.728L98.6155 161.901Z" fill="#BBDDFA"/>
<path d="M24.2884 147.448C22.5966 147.647 22.1487 148.806 22.9449 150.923L22.8635 160.911C23.1801 161.544 22.8544 162.105 21.8864 162.593C22.4563 157.835 22.3568 153.139 21.5878 148.507C21.5154 148.046 21.6919 147.715 22.1171 147.516C22.7323 147.227 23.456 147.204 24.2884 147.448Z" fill="#25242E"/>
<path d="M24.2884 147.448L36.6921 147.489L72.7767 148.046C76.3865 148.471 79.9285 148.199 83.4026 147.231C83.582 147.181 83.7704 147.17 83.9543 147.201C84.1382 147.232 84.313 147.303 84.4662 147.409C84.6193 147.516 84.7469 147.655 84.8399 147.816C84.9329 147.978 84.9889 148.158 85.0039 148.344C85.4201 153.736 84.9723 159.047 83.6604 164.276C83.5428 164.747 83.2397 165.004 82.7512 165.05C82.1269 165.095 81.557 164.932 81.0413 164.561C80.6794 164.299 80.2768 164.172 79.8335 164.181L70.6325 164.48L25.4148 164.303C23.352 164.484 22.1397 163.982 21.7778 162.797C21.814 162.734 21.8502 162.666 21.8864 162.593C22.8544 162.105 23.1801 161.544 22.8635 160.911L79.5213 161.087C81.3398 161.096 82.2717 160.191 82.3169 158.373L82.4526 152.632C82.458 152.385 82.414 152.139 82.323 151.908C82.232 151.678 82.0959 151.468 81.9227 151.291C81.7495 151.114 81.5427 150.974 81.3144 150.878C81.0862 150.782 80.841 150.733 80.5934 150.733L22.9449 150.923C22.1488 148.806 22.5966 147.647 24.2884 147.448Z" fill="#BBDDFA"/>
<path d="M22.8635 160.911L22.945 150.923L80.5935 150.733C80.8411 150.733 81.0862 150.782 81.3145 150.878C81.5427 150.974 81.7495 151.115 81.9227 151.292C82.0959 151.468 82.232 151.678 82.323 151.909C82.414 152.139 82.4581 152.385 82.4527 152.633L82.3169 158.373C82.2717 160.191 81.3399 161.096 79.5214 161.087L22.8635 160.911ZM71.8946 153.08C69.0538 153.108 66.2266 153.085 63.4129 153.013C63.2048 153.013 63.0963 153.117 63.0872 153.325V153.338C63.0872 153.537 63.1867 153.637 63.3858 153.637C66.2356 153.682 69.0583 153.696 71.8539 153.678C72.071 153.678 72.1751 153.573 72.166 153.365V153.352C72.166 153.171 72.0756 153.08 71.8946 153.08ZM30.4089 154.831C30.5148 154.797 30.6074 154.731 30.6736 154.642C30.7398 154.553 30.7762 154.445 30.7777 154.334C30.7792 154.223 30.7457 154.114 30.6819 154.023C30.6182 153.932 30.5274 153.863 30.4224 153.827C29.2373 153.429 27.9933 153.388 26.6905 153.705C26.5849 153.731 26.4905 153.79 26.4216 153.874C26.3527 153.958 26.313 154.062 26.3084 154.171C26.3038 154.28 26.3346 154.387 26.3962 154.477C26.4577 154.566 26.5467 154.633 26.6498 154.668C27.9616 155.121 29.2146 155.175 30.4089 154.831ZM55.0262 154.736C55.0262 154.646 54.46 154.56 53.4522 154.496C52.4443 154.432 51.0775 154.397 49.6522 154.397C48.2269 154.397 46.86 154.432 45.8522 154.496C44.8443 154.56 44.2782 154.646 44.2782 154.736C44.2782 154.826 44.8443 154.912 45.8522 154.976C46.86 155.04 48.2269 155.075 49.6522 155.075C51.0775 155.075 52.4443 155.04 53.4522 154.976C54.46 154.912 55.0262 154.826 55.0262 154.736ZM78.9514 156.579C78.9515 156.529 78.9417 156.479 78.9227 156.433C78.9037 156.387 78.8758 156.345 78.8406 156.31C78.8054 156.275 78.7635 156.247 78.7175 156.227C78.6714 156.208 78.622 156.198 78.5721 156.198L67.0641 156.178C67.0142 156.178 66.9648 156.188 66.9186 156.207C66.8725 156.226 66.8306 156.254 66.7952 156.289C66.7599 156.324 66.7318 156.366 66.7126 156.412C66.6935 156.458 66.6835 156.507 66.6835 156.557V156.612C66.6834 156.662 66.6931 156.711 66.7121 156.757C66.7311 156.803 66.759 156.845 66.7943 156.881C66.8295 156.916 66.8713 156.944 66.9174 156.963C66.9635 156.982 67.0129 156.992 67.0628 156.992L78.5707 157.012C78.6206 157.012 78.6701 157.003 78.7162 156.984C78.7623 156.965 78.8043 156.937 78.8396 156.902C78.875 156.866 78.903 156.825 78.9222 156.778C78.9414 156.732 78.9513 156.683 78.9514 156.633V156.579ZM59.8438 158.845C59.8437 158.882 59.8363 158.919 59.8219 158.954C59.8076 158.988 59.7865 159.02 59.76 159.046C59.7335 159.073 59.702 159.094 59.6674 159.108C59.6328 159.122 59.5957 159.129 59.5583 159.129L32.5525 159.082C32.4769 159.082 32.4045 159.052 32.3512 158.998C32.2978 158.945 32.2679 158.872 32.2681 158.797C32.2681 158.759 32.2755 158.722 32.2899 158.688C32.3043 158.653 32.3253 158.622 32.3519 158.595C32.3784 158.569 32.4098 158.548 32.4444 158.534C32.4791 158.519 32.5161 158.512 32.5536 158.512L59.5594 158.559C59.6349 158.56 59.7073 158.59 59.7607 158.643C59.814 158.697 59.8439 158.769 59.8438 158.845Z" fill="white"/>
<path d="M71.8943 153.08C72.0753 153.08 72.1657 153.171 72.1657 153.352V153.365C72.1748 153.573 72.0707 153.677 71.8536 153.677C69.058 153.695 66.2353 153.682 63.3855 153.637C63.1864 153.637 63.0869 153.537 63.0869 153.338V153.324C63.096 153.116 63.2045 153.012 63.4126 153.012C66.2263 153.085 69.0535 153.107 71.8943 153.08Z" fill="#25242E"/>
<path d="M30.4088 154.831C29.2146 155.175 27.9615 155.12 26.6497 154.668C26.5466 154.633 26.4577 154.566 26.3961 154.477C26.3345 154.387 26.3037 154.28 26.3083 154.171C26.3129 154.062 26.3526 153.958 26.4215 153.874C26.4904 153.79 26.5848 153.73 26.6904 153.705C27.9932 153.388 29.2372 153.429 30.4224 153.827C30.5273 153.863 30.6181 153.932 30.6819 154.023C30.7456 154.114 30.7791 154.223 30.7776 154.334C30.7761 154.445 30.7397 154.553 30.6735 154.642C30.6073 154.731 30.5147 154.797 30.4088 154.831Z" fill="#BBDDFA"/>
<path d="M49.6523 155.075C52.6203 155.075 55.0264 154.923 55.0264 154.736C55.0264 154.549 52.6203 154.397 49.6523 154.397C46.6844 154.397 44.2783 154.549 44.2783 154.736C44.2783 154.923 46.6844 155.075 49.6523 155.075Z" fill="#25242E"/>
<path d="M356.021 160.811C357.01 163.498 357.971 165.617 358.168 165.545C358.365 165.473 357.723 163.236 356.734 160.549C355.746 157.862 354.785 155.742 354.588 155.815C354.391 155.887 355.033 158.124 356.021 160.811Z" fill="#25242E"/>
<path d="M78.572 156.198L67.0641 156.178C66.8542 156.178 66.6838 156.347 66.6834 156.557L66.6833 156.612C66.683 156.821 66.8528 156.992 67.0626 156.992L78.5706 157.012C78.7805 157.013 78.9509 156.843 78.9513 156.633L78.9514 156.579C78.9517 156.369 78.7819 156.198 78.572 156.198Z" fill="#883A45"/>
<path d="M59.5593 158.559L32.5535 158.512C32.3961 158.512 32.2683 158.639 32.2681 158.796C32.2678 158.954 32.3952 159.082 32.5525 159.082L59.5583 159.129C59.7157 159.129 59.8435 159.002 59.8438 158.845C59.844 158.687 59.7167 158.559 59.5593 158.559Z" fill="#25242E"/>
<path d="M188.59 159.649C190.671 163.15 192.566 166.737 194.276 170.41C194.366 170.609 194.312 170.758 194.113 170.858H194.1C193.91 170.958 193.787 170.903 193.733 170.695C193.353 169.302 192.503 168.361 191.182 167.872C191.309 166.579 190.96 165.249 190.137 163.883C189.323 162.526 188.807 161.114 188.59 159.649Z" fill="#25242E"/>
<path d="M17.1773 163.285C18.1454 164.941 20.8912 165.28 25.4148 164.303L70.6325 164.48L79.9692 164.914C80.1953 164.923 80.3084 165.041 80.3084 165.267L80.2949 165.687C80.2858 165.914 80.1682 166.027 79.942 166.027L18.168 166.352C17.7315 166.353 17.3079 166.5 16.9656 166.771C16.6234 167.042 16.3824 167.42 16.2817 167.845C15.5036 171.238 15.4448 174.662 16.1052 178.118C16.1595 178.435 16.4083 178.566 16.8516 178.512C16.9783 178.403 17.0688 178.458 17.1231 178.675C16.6436 178.638 16.5395 178.914 16.8109 179.502C16.884 179.657 17.0141 179.778 17.1752 179.841C17.3363 179.904 17.5164 179.904 17.6795 179.842C19.0275 179.335 20.3846 179.064 21.7507 179.027C26.7311 178.905 31.5623 179.652 36.5156 179.625C50.7921 179.525 65.3399 179.557 80.1592 179.72C81.8962 179.738 83.7011 179.634 85.5739 179.407C86.0081 179.362 87.8583 179.236 91.1243 179.027C92.6261 179.037 93.7932 179.462 94.6256 180.303C94.712 180.389 94.7709 180.498 94.7949 180.617C94.8189 180.736 94.8068 180.86 94.7601 180.972C94.7135 181.084 94.6345 181.18 94.5332 181.247C94.4318 181.314 94.3128 181.349 94.1913 181.348L82.9819 181.307C82.5657 181.307 82.2219 181.149 81.9505 180.832C81.7062 180.534 81.4438 180.534 81.1634 180.832C80.8829 181.131 80.5346 181.28 80.1184 181.28C59.7895 181.335 39.4605 181.411 19.1315 181.511C18.5163 181.511 17.7518 181.778 16.8381 182.312C16.44 182.547 16.0329 182.569 15.6167 182.379C14.9563 182.072 14.4451 181.439 14.0832 180.48C13.0971 173.287 13.1378 167.976 14.2053 164.547C14.8115 162.629 15.8022 162.209 17.1773 163.285Z" fill="#F05467"/>
<path d="M21.7779 162.797C22.1397 163.982 23.3521 164.484 25.4148 164.303C20.8912 165.28 18.1454 164.941 17.1774 163.285C19.8553 164.661 21.3888 164.498 21.7779 162.797Z" fill="#25242E"/>
<path d="M102.442 163.72L96.4713 172.554C94.6166 173.839 93.92 175.581 94.3814 177.779C94.5895 178.774 94.9604 179.724 95.4942 180.629C95.7384 181.036 96.0958 181.253 96.5663 181.28L98.1269 181.375L145.258 180.765L210.574 181.145C211.054 181.145 211.343 180.909 211.443 180.439L212.257 176.544C212.99 175.866 213.496 174.744 213.777 173.179C213.668 174.907 213.053 177.042 211.931 179.584C211.857 179.756 211.825 179.944 211.838 180.132C211.852 180.319 211.91 180.5 212.009 180.66C212.107 180.82 212.243 180.954 212.404 181.05C212.566 181.146 212.748 181.202 212.935 181.213L213.953 181.253C214.407 181.277 214.857 181.157 215.239 180.911C215.621 180.665 215.917 180.305 216.084 179.883C217.359 176.662 218.622 173.301 219.87 169.8C219.906 169.682 219.988 169.646 220.114 169.691H220.128C220.291 169.745 220.34 169.854 220.277 170.017C218.875 173.645 217.509 177.187 216.179 180.643C216.152 180.709 216.142 180.781 216.15 180.852C216.157 180.923 216.182 180.991 216.223 181.05C216.263 181.109 216.317 181.157 216.38 181.19C216.444 181.224 216.514 181.24 216.586 181.24L226.384 181.104C226.809 181.095 227.216 180.995 227.605 180.805C227.877 180.67 228.166 180.588 228.474 180.561L228.094 181.023C227.958 181.176 227.967 181.326 228.121 181.47C228.212 181.552 228.338 181.597 228.501 181.606C227.822 181.778 227.13 181.864 226.425 181.864C208.538 181.945 190.657 182 172.78 182.027C172.011 182.027 169.333 182.131 164.746 182.339C162.059 182.457 159.367 182.407 156.671 182.19C154.78 182.036 152.871 182.022 150.944 182.149C149.026 182.267 147.104 182.298 145.177 182.244C140.463 182.117 138.084 182.054 138.038 182.054C96.4577 182.099 54.9448 182.194 13.4998 182.339L14.0833 180.48C14.4452 181.439 14.9563 182.072 15.6168 182.38C16.033 182.57 16.4401 182.547 16.8382 182.312C17.7519 181.778 18.5164 181.511 19.1316 181.511C39.4606 181.412 59.7896 181.335 80.1185 181.28C80.5347 181.28 80.883 181.131 81.1635 180.833C81.4439 180.534 81.7063 180.534 81.9506 180.833C82.222 181.149 82.5658 181.308 82.982 181.308L94.1914 181.348C94.3129 181.349 94.4319 181.314 94.5332 181.247C94.6346 181.18 94.7136 181.084 94.7602 180.972C94.8069 180.86 94.819 180.736 94.795 180.617C94.771 180.498 94.7121 180.389 94.6256 180.303C93.7933 179.462 92.6262 179.037 91.1244 179.028C90.9796 178.829 90.3871 178.63 89.3466 178.431C90.3418 177.852 91.3596 177.956 92.4 178.743C92.5065 178.823 92.6334 178.873 92.7663 178.885C92.8993 178.898 93.0332 178.873 93.1529 178.814C93.2727 178.755 93.3736 178.664 93.4444 178.55C93.5151 178.437 93.5529 178.306 93.5536 178.173L93.5128 168.931C93.6757 168.388 93.8838 168.157 94.1371 168.239L94.2457 172.609C94.2475 172.704 94.2791 172.797 94.336 172.874C94.3929 172.951 94.4723 173.008 94.5632 173.038C94.6542 173.068 94.7522 173.069 94.8436 173.041C94.935 173.012 95.0153 172.956 95.0735 172.88L102.442 163.72Z" fill="#25242E"/>
<path d="M17.1231 178.675C17.0689 178.457 16.9784 178.403 16.8517 178.512L16.8246 168.469C16.8246 168.145 16.9533 167.835 17.1823 167.606C17.4114 167.377 17.722 167.248 18.046 167.248L79.2093 167.506C79.5078 167.506 79.6616 167.655 79.6707 167.954L79.8335 178.077C79.8335 178.503 79.6209 178.72 79.1957 178.729C59.6629 178.874 43.1654 178.833 29.7032 178.607C25.7541 178.552 23.2571 176.72 18.6295 178.987C18.2133 179.195 17.7112 179.091 17.1231 178.675ZM36.3256 170.618C36.3259 170.571 36.3171 170.525 36.2997 170.482C36.2822 170.439 36.2565 170.4 36.224 170.367C36.1915 170.334 36.1527 170.308 36.1101 170.29C36.0674 170.272 36.0215 170.263 35.9752 170.262L19.9893 170.151C19.9429 170.15 19.897 170.159 19.8541 170.177C19.8111 170.194 19.7721 170.22 19.7391 170.252C19.7061 170.285 19.6798 170.324 19.6618 170.366C19.6438 170.409 19.6343 170.455 19.634 170.501L19.6339 170.528C19.6335 170.575 19.6424 170.62 19.6598 170.663C19.6772 170.706 19.7029 170.745 19.7355 170.778C19.768 170.811 19.8067 170.838 19.8494 170.856C19.8921 170.874 19.9379 170.883 19.9843 170.884L35.9702 170.995C36.0165 170.995 36.0625 170.987 36.1054 170.969C36.1483 170.952 36.1874 170.926 36.2204 170.893C36.2534 170.861 36.2797 170.822 36.2977 170.779C36.3157 170.737 36.3251 170.691 36.3255 170.645L36.3256 170.618ZM71.1616 170.446C71.1613 170.399 71.1519 170.353 71.134 170.311C71.116 170.268 71.0898 170.229 71.0569 170.197C71.0239 170.164 70.9849 170.138 70.942 170.121C70.8991 170.103 70.8532 170.094 70.8068 170.095L43.6386 170.237C43.5923 170.237 43.5464 170.246 43.5037 170.264C43.461 170.282 43.4222 170.309 43.3896 170.341C43.357 170.374 43.3312 170.413 43.3137 170.456C43.2962 170.499 43.2873 170.545 43.2875 170.592L43.2878 170.646C43.2881 170.692 43.2974 170.738 43.3154 170.781C43.3333 170.823 43.3596 170.862 43.3925 170.895C43.4254 170.927 43.4645 170.953 43.5074 170.971C43.5503 170.988 43.5962 170.997 43.6425 170.997L70.8108 170.855C70.8571 170.854 70.903 170.845 70.9457 170.827C70.9884 170.809 71.0272 170.783 71.0598 170.75C71.0924 170.717 71.1182 170.678 71.1357 170.635C71.1532 170.592 71.1621 170.546 71.1618 170.5L71.1616 170.446ZM38.5649 174.793C35.326 174.848 32.155 174.857 29.0518 174.821C28.8709 174.821 28.7804 174.911 28.7804 175.092V175.105C28.7804 175.277 28.8664 175.368 29.0383 175.377C32.1414 175.431 35.3396 175.436 38.6328 175.39C38.8137 175.39 38.9042 175.3 38.9042 175.119H38.8906C38.8906 174.893 38.782 174.784 38.5649 174.793ZM75.1788 174.902C74.6359 174.974 74.6269 175.092 75.1516 175.255C75.8392 175.463 76.563 175.485 77.3229 175.323C77.8205 175.214 77.8205 175.105 77.3229 174.997C76.6082 174.834 75.8935 174.802 75.1788 174.902ZM62.6801 176.426C62.68 176.465 62.6721 176.504 62.657 176.54C62.6418 176.576 62.6197 176.609 62.5919 176.637C62.5641 176.664 62.5311 176.686 62.4948 176.701C62.4585 176.716 62.4197 176.724 62.3805 176.724L45.0101 176.663C44.9708 176.663 44.932 176.655 44.8959 176.64C44.8597 176.625 44.8268 176.603 44.7992 176.575C44.7715 176.547 44.7497 176.514 44.7348 176.478C44.7199 176.441 44.7123 176.403 44.7125 176.363C44.7126 176.324 44.7205 176.285 44.7356 176.249C44.7507 176.213 44.7728 176.18 44.8007 176.153C44.8285 176.125 44.8615 176.103 44.8978 176.088C44.934 176.073 44.9729 176.066 45.0121 176.066L62.3825 176.126C62.4217 176.127 62.4605 176.134 62.4967 176.15C62.5329 176.165 62.5658 176.187 62.5934 176.215C62.621 176.242 62.6429 176.275 62.6578 176.312C62.6727 176.348 62.6803 176.387 62.6801 176.426Z" fill="white"/>
<path d="M93.5129 168.931L93.5536 178.173C93.553 178.306 93.5152 178.437 93.4445 178.55C93.3737 178.664 93.2728 178.755 93.153 178.814C93.0333 178.873 92.8994 178.898 92.7664 178.885C92.6334 178.873 92.5066 178.823 92.4001 178.743C91.3597 177.956 90.3419 177.851 89.3467 178.43L82.7378 178.878C81.2721 178.978 80.5393 178.295 80.5393 176.829L80.5664 169.637C80.5664 168.298 81.2359 167.615 82.5749 167.587L92.658 167.411C93.1103 167.402 93.3953 167.615 93.5129 168.049C93.5853 168.293 93.5853 168.587 93.5129 168.931ZM89.5096 172.744C87.3383 172.717 85.3026 172.713 83.4027 172.731C83.2127 172.731 83.1177 172.83 83.1177 173.029C83.1087 173.246 83.2127 173.355 83.4299 173.355C85.4293 173.373 87.5282 173.391 89.7267 173.409C89.7719 173.409 89.7946 173.387 89.7946 173.341L89.781 173.002C89.7719 172.83 89.6815 172.744 89.5096 172.744Z" fill="white"/>
<path d="M191.181 167.872L190.733 176.517L182.713 176.422L188.779 176.449C188.938 176.45 189.095 176.415 189.239 176.348C189.384 176.281 189.511 176.184 189.614 176.062C189.716 175.94 189.79 175.798 189.831 175.644C189.872 175.491 189.879 175.33 189.851 175.173C189.372 172.532 189.815 170.098 191.181 167.872Z" fill="#883A45"/>
<path d="M35.9752 170.262L19.9893 170.151C19.7944 170.149 19.6354 170.306 19.634 170.501L19.6338 170.528C19.6325 170.723 19.7893 170.882 19.9842 170.883L35.9701 170.995C36.165 170.996 36.3241 170.84 36.3254 170.645L36.3256 170.618C36.327 170.423 36.1701 170.264 35.9752 170.262Z" fill="#25242E"/>
<path d="M70.8067 170.095L43.6385 170.237C43.4436 170.238 43.2865 170.397 43.2875 170.591L43.2878 170.646C43.2888 170.841 43.4476 170.998 43.6425 170.997L70.8107 170.854C71.0056 170.853 71.1627 170.695 71.1617 170.5L71.1614 170.446C71.1604 170.251 71.0016 170.094 70.8067 170.095Z" fill="#25242E"/>
<path d="M365.145 220.568L363.231 215.845C359.323 200.935 355.13 186.116 350.651 171.387C350.588 171.179 350.66 171.043 350.868 170.98H350.882C351.09 170.917 351.226 170.989 351.289 171.197C356.22 187.554 360.838 204.011 365.145 220.568Z" fill="#25242E"/>
<path d="M89.5093 172.744C89.6812 172.744 89.7717 172.83 89.7807 173.002L89.7943 173.341C89.7943 173.387 89.7717 173.409 89.7264 173.409C87.528 173.391 85.429 173.373 83.4296 173.355C83.2125 173.355 83.1084 173.246 83.1175 173.029C83.1175 172.83 83.2125 172.731 83.4025 172.731C85.3024 172.713 87.338 172.717 89.5093 172.744Z" fill="#25242E"/>
<path d="M96.4712 172.554L98.1268 181.375L96.5662 181.28C96.0957 181.253 95.7384 181.036 95.4941 180.629C94.9603 179.724 94.5894 178.774 94.3813 177.779C93.9199 175.581 94.6165 173.839 96.4712 172.554Z" fill="#F0E760"/>
<path d="M38.565 174.793C38.7822 174.784 38.8907 174.893 38.8907 175.119H38.9043C38.9043 175.3 38.8138 175.39 38.6329 175.39C35.3397 175.436 32.1415 175.431 29.0384 175.377C28.8665 175.368 28.7805 175.277 28.7805 175.105V175.092C28.7805 174.911 28.871 174.821 29.0519 174.821C32.1551 174.857 35.3261 174.848 38.565 174.793Z" fill="#25242E"/>
<path d="M75.1787 174.902C75.8934 174.802 76.6081 174.834 77.3228 174.997C77.8204 175.106 77.8204 175.214 77.3228 175.323C76.5629 175.486 75.8391 175.463 75.1515 175.255C74.6268 175.092 74.6358 174.974 75.1787 174.902Z" fill="#25242E"/>
<path d="M62.3826 176.127L45.0122 176.066C44.8473 176.065 44.7132 176.199 44.7126 176.363C44.712 176.528 44.8452 176.663 45.0101 176.663L62.3805 176.724C62.5454 176.724 62.6796 176.591 62.6801 176.426C62.6807 176.261 62.5475 176.127 62.3826 176.127Z" fill="#25242E"/>
<path d="M176.878 176.164L182.713 176.422L190.733 176.517L212.257 176.544L211.442 180.439C211.343 180.909 211.053 181.145 210.574 181.145L145.258 180.765C144.815 180.077 144.656 179.294 144.783 178.417C144.835 178.029 145.027 177.674 145.321 177.417C145.616 177.16 145.993 177.019 146.384 177.019L176.593 176.815C176.81 176.815 176.932 176.707 176.959 176.49C176.977 176.354 176.95 176.245 176.878 176.164Z" fill="#BBDDFA"/>
<path d="M252.087 191.214L260.148 190.427C262.003 190.246 262.939 189.223 262.957 187.36L262.971 184.686C262.989 182.904 262.107 182.022 260.324 182.04C250.924 182.14 241.203 182.108 231.161 181.945C230.907 181.936 230.781 181.764 230.781 181.429L261.736 181.334C263.21 181.325 263.952 182.063 263.961 183.546L263.975 188.934C263.975 190.499 263.197 191.277 261.641 191.268L252.087 191.214Z" fill="#25242E"/>
<path d="M13.4998 182.339C54.9448 182.194 96.4577 182.099 138.038 182.054C138.084 182.054 140.463 182.117 145.177 182.244C147.104 182.298 149.026 182.266 150.944 182.149C152.871 182.022 154.78 182.036 156.671 182.189C159.367 182.407 162.059 182.456 164.746 182.339C169.333 182.131 172.011 182.027 172.78 182.027C190.657 181.999 208.538 181.945 226.425 181.864C227.13 181.864 227.823 181.778 228.501 181.606L230.781 181.429C230.781 181.764 230.908 181.936 231.161 181.945C241.203 182.108 250.924 182.14 260.324 182.04C262.107 182.022 262.989 182.904 262.971 184.686L262.957 187.36C262.939 189.224 262.003 190.246 260.148 190.427L252.087 191.214L240.742 191.377C240.308 191.377 240.09 191.598 240.09 192.042L240.077 292.397C240.077 292.841 239.855 293.067 239.412 293.076L200.681 293.565L197.655 293.497L67.0771 293.171C67.0047 293.162 66.9414 293.18 66.8871 293.225C66.1543 293.687 66.1136 293.669 66.7649 293.171C65.2088 293.659 64.0825 293.669 63.3858 293.198L29.9204 293.09C29.468 293.08 29.2419 292.854 29.2419 292.411V192.042C29.2419 191.526 28.984 191.273 28.4683 191.282C20.4616 191.336 12.2784 191.345 3.91885 191.309C-0.953051 191.282 -0.220232 185.677 0.580441 182.678C0.660114 182.382 0.828049 182.117 1.06264 181.916C1.29723 181.716 1.58774 181.589 1.8968 181.552C6.03136 181.081 9.89902 181.344 13.4998 182.339Z" fill="#89645D"/>
<path d="M431.085 262.949C421.486 264.84 412.303 268.056 403.536 272.598C399.239 274.498 394.711 277.044 389.952 280.238C388.342 281.315 387.261 282.798 386.709 284.689L386.017 282.844L395.978 275.502C396.339 275.24 396.448 274.896 396.303 274.471C396.249 274.308 396.235 274.145 396.262 273.982C396.434 273.077 396.579 273.195 396.697 274.335C396.733 274.742 397.077 274.86 397.728 274.688C397.836 274.661 397.937 274.619 398.027 274.566C404.74 270.865 412.679 267.531 421.843 264.564C425.245 263.46 428.326 262.922 431.085 262.949Z" fill="#25242E"/>
<path d="M431.085 262.949C431.175 262.859 431.27 262.768 431.37 262.678C432.121 266.93 433.455 270.553 435.373 273.548C430.985 273.548 427.534 274.127 425.019 275.285C422.703 276.352 422.608 278.239 424.734 280.944C424.426 281.052 424.327 281.369 424.435 281.894C424.372 281.478 424.209 281.193 423.947 281.039C423.766 280.939 423.49 280.939 423.119 281.039C418.306 282.36 413.466 282.301 408.598 280.862C408.508 280.817 408.417 280.772 408.327 280.727L403.536 272.598C412.303 268.056 421.486 264.84 431.085 262.949Z" fill="#C27065"/>
<path d="M403.536 272.598L408.327 280.727C403.143 282.636 398.823 284.034 395.367 284.92C392.39 285.68 389.504 285.603 386.709 284.689C387.261 282.799 388.342 281.315 389.952 280.238C394.711 277.045 399.239 274.498 403.536 272.598Z" fill="#BBDDFA"/>
<path d="M435.374 273.548C439.074 282.55 442.136 292.126 444.561 302.277C439.798 302.426 434.383 303.661 432.13 298.138C431.063 295.496 428.597 289.765 424.734 280.944C422.608 278.239 422.703 276.352 425.019 275.285C427.534 274.127 430.986 273.548 435.374 273.548Z" fill="#25242E"/>
<path d="M408.598 280.862C413.466 282.301 418.306 282.36 423.119 281.039C423.49 280.939 423.766 280.939 423.947 281.039C424.209 281.193 424.372 281.478 424.435 281.894C426.987 287.765 429.538 293.646 432.089 299.536C434.03 304.014 441.141 303.145 445.076 302.806C448.541 303.765 450.618 306.511 451.305 311.044C447.895 310.79 444.307 310.686 440.544 310.732C436.079 310.799 431.777 310.392 428.317 307.787C421.911 302.974 415.23 297.839 408.273 292.384C407.522 291.796 406.689 291.637 405.776 291.909C405.124 292.099 404.871 292.628 405.016 293.497C405.045 293.686 405.112 293.867 405.213 294.03C405.313 294.193 405.444 294.335 405.599 294.447C412.801 299.821 420.052 305.231 427.353 310.677C429.588 312.351 431.818 313.314 434.043 313.568C436.812 313.884 442.62 313.97 451.468 313.826C446.628 314.568 441.335 314.739 435.59 314.341C432.216 314.106 429.438 313.179 427.258 311.559C419.966 306.167 412.647 300.707 405.301 295.179C403.916 294.148 404.011 292.384 405.463 291.515C405.898 291.262 406.359 291.181 406.848 291.271C406.983 291.298 407.119 291.289 407.255 291.244C407.49 291.162 407.599 290.995 407.58 290.742C407.336 287.449 407.675 284.155 408.598 280.862ZM413.319 292.072C414.23 292.078 415.106 291.654 415.755 290.892C416.405 290.131 416.774 289.094 416.781 288.011C416.789 286.928 416.434 285.886 415.796 285.116C415.157 284.345 414.287 283.909 413.376 283.902C412.466 283.896 411.59 284.32 410.941 285.082C410.291 285.843 409.922 286.88 409.915 287.963C409.907 289.046 410.262 290.088 410.9 290.858C411.539 291.629 412.409 292.065 413.319 292.072Z" fill="#25242E"/>
<path d="M424.734 280.944C428.597 289.765 431.062 295.496 432.13 298.138C434.382 303.661 439.797 302.426 444.56 302.277C444.732 302.449 444.904 302.625 445.076 302.806C441.141 303.146 434.03 304.014 432.089 299.536C429.538 293.646 426.986 287.765 424.435 281.894C424.326 281.369 424.426 281.052 424.734 280.944Z" fill="white"/>
<path d="M317.918 283.427L347.448 283.984L345.711 292.872C345.25 294.827 344.381 296.129 343.106 296.781C337.162 299.803 331.123 299.717 324.989 296.523C324.564 296.306 324.184 296.365 323.849 296.699C323.713 296.826 323.6 296.984 323.51 297.174C323.446 296.921 323.22 296.79 322.831 296.781L323.659 294.664C323.774 294.365 323.822 294.045 323.8 293.726C323.777 293.407 323.685 293.097 323.53 292.817C323.375 292.538 323.16 292.296 322.901 292.108C322.642 291.921 322.345 291.793 322.03 291.733C321.017 291.552 319.8 291.574 318.38 291.8L317.918 283.427Z" fill="#C27065"/>
<path d="M413.319 292.072C412.409 292.065 411.538 291.629 410.9 290.858C410.261 290.088 409.907 289.046 409.914 287.963C409.922 286.88 410.291 285.843 410.94 285.082C411.589 284.32 412.466 283.896 413.376 283.902C414.287 283.909 415.157 284.345 415.796 285.116C416.434 285.886 416.788 286.928 416.781 288.011C416.773 289.094 416.404 290.131 415.755 290.892C415.106 291.654 414.23 292.078 413.319 292.072ZM413.278 291.42C413.643 291.427 414.007 291.349 414.348 291.189C414.689 291.029 415 290.791 415.265 290.487C415.53 290.184 415.743 289.822 415.891 289.422C416.039 289.021 416.12 288.59 416.129 288.154C416.138 287.717 416.075 287.284 415.944 286.877C415.813 286.471 415.615 286.1 415.364 285.786C415.112 285.472 414.81 285.221 414.476 285.047C414.142 284.873 413.783 284.779 413.417 284.771C413.052 284.764 412.689 284.842 412.348 285.002C412.007 285.162 411.695 285.401 411.43 285.704C411.165 286.007 410.953 286.369 410.805 286.77C410.656 287.17 410.575 287.601 410.566 288.037C410.557 288.474 410.62 288.908 410.751 289.314C410.883 289.72 411.08 290.091 411.332 290.405C411.583 290.719 411.885 290.97 412.219 291.144C412.553 291.319 412.913 291.412 413.278 291.42Z" fill="white"/>
<path d="M410.567 288.037C410.528 289.873 411.742 291.388 413.278 291.42C414.814 291.452 416.091 289.99 416.129 288.154C416.168 286.318 414.954 284.804 413.418 284.772C411.881 284.739 410.605 286.202 410.567 288.037Z" fill="#25242E"/>
<path d="M322.831 296.781C322.234 298.844 321.316 300.101 320.076 300.553C317.543 301.476 313.644 302.395 308.378 303.308C307.238 303.507 305.777 303.48 303.995 303.227C303.678 303.182 303.511 303.322 303.493 303.648L303.466 304.014C303.457 304.195 303.543 304.281 303.724 304.272C310.229 304 315.824 302.924 320.511 301.042C321.85 300.499 322.849 299.21 323.51 297.174C323.6 296.984 323.713 296.826 323.849 296.699C324.184 296.365 324.564 296.306 324.989 296.523C331.123 299.717 337.162 299.803 343.106 296.781C344.382 296.129 345.25 294.827 345.712 292.872L347.354 292.642C347.806 292.578 348.163 292.737 348.426 293.117C348.76 293.596 348.733 294.098 348.344 294.623C347.684 295.519 347.046 296.396 346.431 297.256C346.317 297.416 346.242 297.599 346.211 297.79C346.18 297.981 346.195 298.175 346.254 298.355C347.385 301.82 347.896 305.294 347.788 308.777C347.779 309.221 347.951 309.573 348.304 309.836C349.308 310.569 349.688 311.582 349.443 312.876C349.353 313.337 349.1 313.676 348.684 313.893C347.109 314.699 345.341 314.771 343.377 314.111L347.571 313.636C347.803 313.608 348.026 313.524 348.22 313.393C348.414 313.261 348.573 313.085 348.685 312.879C348.796 312.673 348.857 312.443 348.862 312.209C348.866 311.974 348.814 311.742 348.711 311.532C348.294 310.682 347.602 310.257 346.634 310.257C330.105 310.22 313.463 310.198 296.708 310.189C296.419 310.189 296.134 310.25 295.871 310.367C295.607 310.484 295.372 310.656 295.18 310.87C294.987 311.084 294.843 311.335 294.755 311.609C294.668 311.882 294.639 312.17 294.672 312.455C294.681 312.527 294.69 313.088 294.699 314.138C293.659 312.193 293.844 310.772 295.256 309.877C295.622 309.64 295.888 309.278 296.002 308.859C296.861 305.819 299.114 303.634 302.76 302.304C307.184 300.685 311.608 299.002 316.032 297.256C316.439 297.102 316.711 296.817 316.847 296.401L318.38 291.8C319.8 291.574 321.017 291.552 322.031 291.732C322.345 291.793 322.642 291.921 322.901 292.108C323.16 292.296 323.375 292.538 323.53 292.817C323.685 293.097 323.778 293.407 323.8 293.726C323.822 294.045 323.774 294.365 323.659 294.664L322.831 296.781ZM343.743 302.633C343.732 302.2 343.635 301.774 343.459 301.378C343.283 300.982 343.031 300.625 342.717 300.327C342.403 300.029 342.033 299.796 341.628 299.641C341.224 299.485 340.793 299.411 340.36 299.423L338.895 299.461C338.462 299.472 338.036 299.569 337.64 299.745C337.245 299.921 336.888 300.174 336.589 300.488C336.291 300.802 336.058 301.172 335.903 301.576C335.748 301.98 335.674 302.411 335.685 302.844L335.71 303.821C335.722 304.254 335.818 304.68 335.994 305.076C336.171 305.471 336.423 305.828 336.737 306.127C337.051 306.425 337.421 306.658 337.825 306.813C338.23 306.968 338.66 307.042 339.093 307.031L340.558 306.993C340.991 306.981 341.418 306.885 341.813 306.709C342.209 306.533 342.566 306.28 342.864 305.966C343.162 305.652 343.396 305.282 343.551 304.878C343.706 304.474 343.78 304.043 343.769 303.61L343.743 302.633Z" fill="#25242E"/>
<path d="M451.305 311.044C452.174 311.722 452.228 312.65 451.468 313.826C442.62 313.97 436.812 313.885 434.043 313.568C431.818 313.315 429.587 312.351 427.353 310.677C420.052 305.231 412.8 299.821 405.599 294.447C405.444 294.335 405.312 294.193 405.212 294.03C405.112 293.867 405.045 293.686 405.015 293.497C404.871 292.628 405.124 292.099 405.775 291.909C406.689 291.638 407.521 291.796 408.272 292.384C415.23 297.839 421.911 302.974 428.316 307.787C431.777 310.392 436.079 310.799 440.544 310.732C444.307 310.686 447.894 310.79 451.305 311.044Z" fill="white"/>
<path d="M63.386 293.198C64.0826 293.669 65.209 293.66 66.7651 293.171C65.9328 298.147 66.2901 301.513 67.8372 303.268C66.0821 303.412 64.4898 303.231 63.0603 302.725L63.386 293.198Z" fill="#25242E"/>
<path d="M197.654 293.497L200.681 293.564L200.776 301.829C200.776 302.327 201.02 302.625 201.508 302.725L201.943 302.82C200.034 303.48 198.532 303.444 197.437 302.711L197.654 293.497Z" fill="#25242E"/>
<path d="M322.831 296.781C323.22 296.79 323.446 296.921 323.51 297.174C322.849 299.21 321.85 300.499 320.511 301.042C315.824 302.924 310.228 304 303.724 304.272C303.543 304.281 303.457 304.195 303.466 304.014L303.493 303.647C303.511 303.322 303.678 303.182 303.995 303.227C305.777 303.48 307.238 303.507 308.378 303.308C313.644 302.394 317.543 301.476 320.076 300.553C321.316 300.101 322.234 298.843 322.831 296.781Z" fill="white"/>
<path d="M343.769 303.61C343.78 304.043 343.706 304.474 343.551 304.878C343.396 305.282 343.162 305.652 342.864 305.966C342.566 306.28 342.209 306.533 341.814 306.709C341.418 306.885 340.991 306.981 340.559 306.993L339.093 307.031C338.66 307.042 338.23 306.968 337.825 306.813C337.421 306.658 337.051 306.425 336.737 306.127C336.423 305.828 336.171 305.471 335.994 305.076C335.818 304.68 335.722 304.254 335.71 303.821L335.685 302.844C335.674 302.411 335.748 301.98 335.903 301.576C336.058 301.172 336.291 300.802 336.589 300.488C336.888 300.174 337.245 299.921 337.64 299.745C338.036 299.569 338.462 299.472 338.895 299.461L340.36 299.423C340.793 299.411 341.224 299.485 341.629 299.641C342.033 299.796 342.403 300.029 342.717 300.327C343.031 300.625 343.283 300.982 343.459 301.378C343.635 301.774 343.732 302.2 343.743 302.633L343.769 303.61ZM343.282 303.314C343.284 302.454 342.914 301.629 342.253 301.019C341.592 300.41 340.695 300.067 339.76 300.065C339.296 300.064 338.837 300.147 338.409 300.309C337.981 300.472 337.591 300.71 337.263 301.011C336.935 301.311 336.674 301.668 336.496 302.061C336.318 302.455 336.226 302.876 336.226 303.302C336.224 304.162 336.594 304.988 337.255 305.597C337.916 306.207 338.813 306.55 339.748 306.552C340.212 306.553 340.671 306.469 341.099 306.307C341.527 306.145 341.917 305.907 342.245 305.606C342.573 305.305 342.834 304.948 343.012 304.555C343.19 304.162 343.282 303.74 343.282 303.314Z" fill="white"/>
<path d="M339.748 306.552C341.697 306.555 343.279 305.106 343.282 303.315C343.285 301.523 341.708 300.068 339.76 300.065C337.811 300.062 336.229 301.511 336.226 303.302C336.222 305.094 337.8 306.548 339.748 306.552Z" fill="#25242E"/>
<path d="M63.0603 302.725C64.4897 303.231 66.082 303.412 67.8372 303.268C68.3257 304.154 68.5157 305.434 68.4071 307.108C68.38 307.542 68.5881 307.76 69.0314 307.76H103.365C105.537 307.76 107.21 308.678 108.387 310.514C108.767 311.112 109.02 311.51 109.146 311.709C110.305 313.509 109.811 314.409 107.667 314.409H22.0766C19.8872 314.409 19.3986 313.5 20.611 311.682L21.5066 310.352C22.037 309.554 22.7569 308.9 23.6021 308.448C24.4474 307.996 25.3918 307.759 26.3514 307.76H60.7939C61.2282 307.76 61.4272 307.547 61.3911 307.122C61.1287 304.335 61.6851 302.87 63.0603 302.725Z" fill="#89645D"/>
<path d="M197.437 302.711C198.532 303.444 200.034 303.48 201.943 302.82C202.106 302.919 202.259 303.033 202.404 303.159C202.594 303.331 202.685 303.544 202.676 303.797L202.648 307.04C202.639 307.52 202.875 307.76 203.354 307.76H238.244C239.067 307.759 239.875 307.967 240.594 308.363C241.313 308.759 241.92 309.332 242.356 310.026C242.664 310.524 243.026 311.098 243.442 311.749C244.555 313.523 244.066 314.409 241.976 314.409H156.372C154.156 314.409 153.663 313.486 154.893 311.641L155.68 310.487C156.239 309.648 156.997 308.96 157.888 308.484C158.778 308.008 159.772 307.759 160.783 307.76H194.954C195.102 307.759 195.248 307.726 195.381 307.662C195.514 307.597 195.631 307.504 195.722 307.389C195.814 307.274 195.878 307.14 195.909 306.998C195.94 306.855 195.939 306.707 195.904 306.565C195.334 304.141 195.845 302.856 197.437 302.711Z" fill="#89645D"/>
<path d="M343.377 314.111L294.699 314.138C294.69 313.088 294.681 312.527 294.672 312.455C294.639 312.17 294.668 311.882 294.755 311.609C294.843 311.335 294.987 311.084 295.179 310.87C295.371 310.656 295.607 310.484 295.87 310.367C296.134 310.25 296.419 310.189 296.707 310.189C313.463 310.198 330.105 310.22 346.634 310.257C347.602 310.257 348.294 310.682 348.71 311.532C348.814 311.742 348.866 311.974 348.861 312.209C348.857 312.443 348.796 312.673 348.685 312.879C348.573 313.085 348.413 313.261 348.22 313.393C348.026 313.524 347.803 313.608 347.57 313.636L343.377 314.111Z" fill="white"/>
</svg>
