<svg width="1440" height="227" viewBox="0 0 1440 227" fill="none" xmlns="http://www.w3.org/2000/svg">
<path fill-rule="evenodd" clip-rule="evenodd" d="M1440 195.132V120.475C1411.84 136.993 1341.79 116.646 1254.23 91.2088C1160.62 64.0134 1046.98 31 943.073 31C733.551 31 586.405 74.6591 430.563 120.898C407.155 127.844 383.55 134.847 359.508 141.77C217.407 182.687 0 86.858 0 86.858V161.516C0 161.516 217.407 257.344 359.508 216.427C383.55 209.505 407.155 202.501 430.563 195.556C586.405 149.317 733.551 105.657 943.073 105.657C1046.98 105.657 1160.62 138.671 1254.23 165.866C1341.79 191.303 1411.84 211.65 1440 195.132Z" fill="#914BDB"/>
<path d="M0 0H1440C1440 0 1440 54.2108 1440 123.041C1381.72 157.218 1144.16 33.5657 943.073 33.5657C702.079 33.5657 543.607 91.3255 359.508 144.335C217.407 185.252 0 89.4237 0 89.4237V0Z" fill="#9E60DF"/>
</svg>
